%TF.GenerationSoftware,KiCad,Pcbnew,(6.0.10)*%
%TF.CreationDate,2023-06-26T14:12:15+09:00*%
%TF.ProjectId,OurDream,4f757244-7265-4616-9d2e-6b696361645f,rev?*%
%TF.SameCoordinates,Original*%
%TF.FileFunction,Paste,Top*%
%TF.FilePolarity,Positive*%
%FSLAX46Y46*%
G04 Gerber Fmt 4.6, Leading zero omitted, Abs format (unit mm)*
G04 Created by KiCad (PCBNEW (6.0.10)) date 2023-06-26 14:12:15*
%MOMM*%
%LPD*%
G01*
G04 APERTURE LIST*
G04 Aperture macros list*
%AMRoundRect*
0 Rectangle with rounded corners*
0 $1 Rounding radius*
0 $2 $3 $4 $5 $6 $7 $8 $9 X,Y pos of 4 corners*
0 Add a 4 corners polygon primitive as box body*
4,1,4,$2,$3,$4,$5,$6,$7,$8,$9,$2,$3,0*
0 Add four circle primitives for the rounded corners*
1,1,$1+$1,$2,$3*
1,1,$1+$1,$4,$5*
1,1,$1+$1,$6,$7*
1,1,$1+$1,$8,$9*
0 Add four rect primitives between the rounded corners*
20,1,$1+$1,$2,$3,$4,$5,0*
20,1,$1+$1,$4,$5,$6,$7,0*
20,1,$1+$1,$6,$7,$8,$9,0*
20,1,$1+$1,$8,$9,$2,$3,0*%
G04 Aperture macros list end*
%ADD10RoundRect,0.250000X-0.475000X0.250000X-0.475000X-0.250000X0.475000X-0.250000X0.475000X0.250000X0*%
%ADD11R,3.000000X2.000000*%
%ADD12RoundRect,0.250000X0.250000X0.475000X-0.250000X0.475000X-0.250000X-0.475000X0.250000X-0.475000X0*%
%ADD13RoundRect,0.250000X-0.250000X-0.475000X0.250000X-0.475000X0.250000X0.475000X-0.250000X0.475000X0*%
%ADD14RoundRect,0.250000X-0.262500X-0.450000X0.262500X-0.450000X0.262500X0.450000X-0.262500X0.450000X0*%
%ADD15R,3.000000X1.200000*%
%ADD16RoundRect,0.250000X-0.450000X0.262500X-0.450000X-0.262500X0.450000X-0.262500X0.450000X0.262500X0*%
%ADD17R,0.900000X0.350000*%
%ADD18R,3.000000X3.700000*%
%ADD19RoundRect,0.250000X0.262500X0.450000X-0.262500X0.450000X-0.262500X-0.450000X0.262500X-0.450000X0*%
%ADD20R,0.850000X0.600000*%
%ADD21RoundRect,0.150000X-0.150000X0.825000X-0.150000X-0.825000X0.150000X-0.825000X0.150000X0.825000X0*%
G04 APERTURE END LIST*
D10*
%TO.C,C1*%
X126500000Y-140000000D03*
X126500000Y-141900000D03*
%TD*%
D11*
%TO.C,C2*%
X123000000Y-141300000D03*
X123000000Y-137500000D03*
%TD*%
D10*
%TO.C,C3*%
X150000000Y-139500000D03*
X150000000Y-141400000D03*
%TD*%
D11*
%TO.C,C4*%
X123000000Y-135000000D03*
X123000000Y-131200000D03*
%TD*%
%TO.C,C5*%
X146500000Y-141500000D03*
X146500000Y-137700000D03*
%TD*%
%TO.C,C6*%
X146500000Y-134800000D03*
X146500000Y-131000000D03*
%TD*%
D12*
%TO.C,C7*%
X129093000Y-127762000D03*
X127193000Y-127762000D03*
%TD*%
D11*
%TO.C,C8*%
X132207000Y-127762000D03*
X132207000Y-123962000D03*
%TD*%
D13*
%TO.C,C10*%
X122494000Y-117348000D03*
X124394000Y-117348000D03*
%TD*%
D10*
%TO.C,C11*%
X126500000Y-130750000D03*
X126500000Y-132650000D03*
%TD*%
%TO.C,C12*%
X150000000Y-131000000D03*
X150000000Y-132900000D03*
%TD*%
D14*
%TO.C,L1*%
X117675000Y-141500000D03*
X119500000Y-141500000D03*
%TD*%
%TO.C,L2*%
X141087500Y-140912500D03*
X142912500Y-140912500D03*
%TD*%
D15*
%TO.C,L3*%
X106750000Y-139000000D03*
X106750000Y-141540000D03*
X114250000Y-141540000D03*
X114250000Y-139000000D03*
%TD*%
%TO.C,L4*%
X130500000Y-138960000D03*
X130500000Y-141500000D03*
X138000000Y-141500000D03*
X138000000Y-138960000D03*
%TD*%
D14*
%TO.C,L7*%
X117675000Y-131000000D03*
X119500000Y-131000000D03*
%TD*%
%TO.C,L8*%
X141087500Y-131500000D03*
X142912500Y-131500000D03*
%TD*%
D16*
%TO.C,R7*%
X99500000Y-141175000D03*
X99500000Y-143000000D03*
%TD*%
D15*
%TO.C,L5*%
X106750000Y-131000000D03*
X106750000Y-133540000D03*
X114250000Y-133540000D03*
X114250000Y-131000000D03*
%TD*%
%TO.C,L6*%
X130500000Y-130960000D03*
X130500000Y-133500000D03*
X138000000Y-133500000D03*
X138000000Y-130960000D03*
%TD*%
D11*
%TO.C,C9*%
X119761000Y-121275000D03*
X119761000Y-117475000D03*
%TD*%
D14*
%TO.C,R13*%
X141073500Y-96901000D03*
X142898500Y-96901000D03*
%TD*%
%TO.C,R12*%
X136755500Y-84328000D03*
X138580500Y-84328000D03*
%TD*%
%TO.C,R3*%
X117705500Y-102108000D03*
X119530500Y-102108000D03*
%TD*%
%TO.C,R4*%
X117578500Y-105664000D03*
X119403500Y-105664000D03*
%TD*%
D17*
%TO.C,DA1*%
X126157000Y-100087000D03*
X126157000Y-100737000D03*
X126157000Y-101387000D03*
X126157000Y-102037000D03*
X126157000Y-102687000D03*
X126157000Y-103337000D03*
X126157000Y-103987000D03*
X126157000Y-104637000D03*
X131907000Y-104637000D03*
X131907000Y-103987000D03*
X131907000Y-103337000D03*
X131907000Y-102687000D03*
X131907000Y-102037000D03*
X131907000Y-101387000D03*
X131907000Y-100737000D03*
X131907000Y-100087000D03*
D18*
X129032000Y-102362000D03*
%TD*%
D19*
%TO.C,R6*%
X138303000Y-100584000D03*
X136478000Y-100584000D03*
%TD*%
D14*
%TO.C,R10*%
X128881500Y-96012000D03*
X130706500Y-96012000D03*
%TD*%
%TO.C,R11*%
X124563500Y-94869000D03*
X126388500Y-94869000D03*
%TD*%
D20*
%TO.C,SW2*%
X130611000Y-88420000D03*
X130611000Y-90170000D03*
X130611000Y-91920000D03*
X134311000Y-88420000D03*
X134311000Y-90170000D03*
X134311000Y-91920000D03*
%TD*%
D14*
%TO.C,R2*%
X117832500Y-98552000D03*
X119657500Y-98552000D03*
%TD*%
D20*
%TO.C,SW1*%
X123372000Y-88420000D03*
X123372000Y-90170000D03*
X123372000Y-91920000D03*
X127072000Y-88420000D03*
X127072000Y-90170000D03*
X127072000Y-91920000D03*
%TD*%
D14*
%TO.C,R5*%
X117578500Y-109474000D03*
X119403500Y-109474000D03*
%TD*%
D21*
%TO.C,U1*%
X128397000Y-119699000D03*
X127127000Y-119699000D03*
X125857000Y-119699000D03*
X124587000Y-119699000D03*
X124587000Y-124649000D03*
X125857000Y-124649000D03*
X127127000Y-124649000D03*
X128397000Y-124649000D03*
%TD*%
M02*
