M48
; DRILL file {KiCad (6.0.10)} date Mon Jun 26 14:13:00 2023
; FORMAT={-:-/ absolute / inch / decimal}
; #@! TF.CreationDate,2023-06-26T14:13:00+09:00
; #@! TF.GenerationSoftware,Kicad,Pcbnew,(6.0.10)
; #@! TF.FileFunction,Plated,1,2,PTH
FMAT,2
INCH
; #@! TA.AperFunction,Plated,PTH,ViaDrill
T1C0.0157
; #@! TA.AperFunction,Plated,PTH,ComponentDrill
T2C0.0276
; #@! TA.AperFunction,Plated,PTH,ComponentDrill
T3C0.0295
; #@! TA.AperFunction,Plated,PTH,ComponentDrill
T4C0.0354
; #@! TA.AperFunction,Plated,PTH,ComponentDrill
T5C0.0394
; #@! TA.AperFunction,Plated,PTH,ComponentDrill
T6C0.0591
; #@! TA.AperFunction,Plated,PTH,ComponentDrill
T7C0.0630
; #@! TA.AperFunction,Plated,PTH,ComponentDrill
T8C0.0709
%
G90
G05
T1
X4.2028Y-5.4724
X4.252Y-5.1575
X4.252Y-5.4724
X4.515Y-4.495
X4.5159Y-3.6541
X4.6291Y-4.16
X4.6291Y-4.31
X4.6341Y-4.02
X4.6391Y-3.88
X4.715Y-4.625
X4.855Y-3.55
X4.86Y-3.89
X5.0028Y-3.4811
X5.0296Y-4.1824
X5.0296Y-4.818
X5.145Y-3.78
X5.1975Y-3.6675
X5.2189Y-3.265
X5.245Y-4.625
X5.29Y-3.955
X5.29Y-3.955
X5.315Y-3.655
X5.319Y-3.449
X5.326Y-3.89
X5.33Y-4.375
X5.33Y-4.995
X5.38Y-3.69
X5.445Y-3.96
X5.5Y-3.265
X5.5541Y-3.815
X5.82Y-4.625
X5.9016Y-5.5709
X5.905Y-4.545
T2
X3.9764Y-3.4252
X3.9764Y-4.8031
T3
X4.1339Y-3.1102
X4.1839Y-3.1102
X4.2339Y-3.1102
X4.3701Y-3.1102
X4.4201Y-3.1102
X4.4701Y-3.1102
T4
X3.9173Y-5.3437
X3.9173Y-5.4437
T5
X5.8661Y-5.8827
X5.8661Y-5.9827
X5.8661Y-6.0827
T6
X3.7913Y-5.8843
X3.7913Y-6.0843
T7
X3.8494Y-3.2982
X3.8494Y-3.5522
X3.8494Y-4.6762
X3.8494Y-4.9301
X4.1033Y-3.2982
X4.1033Y-3.5522
X4.1033Y-4.6762
X4.1033Y-4.9301
T8
X4.2913Y-5.8843
X4.2913Y-6.0843
X4.4413Y-5.8843
X4.4413Y-6.0843
X4.5913Y-5.8843
X4.5913Y-6.0787
T0
M30
