%TF.GenerationSoftware,KiCad,Pcbnew,(6.0.10)*%
%TF.CreationDate,2023-06-26T14:13:03+09:00*%
%TF.ProjectId,OurDream,4f757244-7265-4616-9d2e-6b696361645f,rev?*%
%TF.SameCoordinates,Original*%
%TF.FileFunction,Copper,L2,Bot*%
%TF.FilePolarity,Positive*%
%FSLAX46Y46*%
G04 Gerber Fmt 4.6, Leading zero omitted, Abs format (unit mm)*
G04 Created by KiCad (PCBNEW (6.0.10)) date 2023-06-26 14:13:03*
%MOMM*%
%LPD*%
G01*
G04 APERTURE LIST*
%TA.AperFunction,ComponentPad*%
%ADD10R,1.050000X1.500000*%
%TD*%
%TA.AperFunction,ComponentPad*%
%ADD11O,1.050000X1.500000*%
%TD*%
%TA.AperFunction,ComponentPad*%
%ADD12R,1.700000X1.700000*%
%TD*%
%TA.AperFunction,ComponentPad*%
%ADD13O,1.700000X1.700000*%
%TD*%
%TA.AperFunction,ComponentPad*%
%ADD14R,1.800000X1.800000*%
%TD*%
%TA.AperFunction,ComponentPad*%
%ADD15C,1.800000*%
%TD*%
%TA.AperFunction,ComponentPad*%
%ADD16C,2.000000*%
%TD*%
%TA.AperFunction,ComponentPad*%
%ADD17C,3.500000*%
%TD*%
%TA.AperFunction,ComponentPad*%
%ADD18C,2.500000*%
%TD*%
%TA.AperFunction,ComponentPad*%
%ADD19C,3.000000*%
%TD*%
%TA.AperFunction,ViaPad*%
%ADD20C,0.800000*%
%TD*%
%TA.AperFunction,Conductor*%
%ADD21C,0.250000*%
%TD*%
%TA.AperFunction,Conductor*%
%ADD22C,0.700000*%
%TD*%
G04 APERTURE END LIST*
D10*
%TO.P,Q2,1*%
%TO.N,Net-(Q2-Pad1)*%
X111000000Y-79000000D03*
D11*
%TO.P,Q2,2*%
%TO.N,GNDA*%
X112270000Y-79000000D03*
%TO.P,Q2,3*%
%TO.N,Net-(C14-Pad2)*%
X113540000Y-79000000D03*
%TD*%
D12*
%TO.P,P1,1*%
%TO.N,Net-(P1-Pad1)*%
X149000000Y-154500000D03*
D13*
%TO.P,P1,2*%
%TO.N,Net-(L3-Pad1)*%
X149000000Y-151960000D03*
%TO.P,P1,3*%
%TO.N,Net-(P1-Pad3)*%
X149000000Y-149420000D03*
%TD*%
D10*
%TO.P,Q1,1*%
%TO.N,Net-(Q1-Pad1)*%
X105000000Y-79000000D03*
D11*
%TO.P,Q1,2*%
%TO.N,Net-(C14-Pad2)*%
X106270000Y-79000000D03*
%TO.P,Q1,3*%
%TO.N,GNDA*%
X107540000Y-79000000D03*
%TD*%
D14*
%TO.P,D1,1*%
%TO.N,Net-(D1-Pad1)*%
X99500000Y-135730000D03*
D15*
%TO.P,D1,2*%
%TO.N,Net-(D1-Pad2)*%
X99500000Y-138270000D03*
%TD*%
D16*
%TO.P,P2,1*%
%TO.N,Net-(C14-Pad2)*%
X101000000Y-87000000D03*
D17*
%TO.P,P2,2*%
%TO.N,GNDA*%
X97775000Y-90225000D03*
X104225000Y-90225000D03*
X97775000Y-83775000D03*
X104225000Y-83775000D03*
%TD*%
D16*
%TO.P,P3,1*%
%TO.N,Net-(C20-Pad1)*%
X101000000Y-122000000D03*
D17*
%TO.P,P3,2*%
%TO.N,GNDA*%
X97775000Y-125225000D03*
X104225000Y-125225000D03*
X104225000Y-118775000D03*
X97775000Y-118775000D03*
%TD*%
D18*
%TO.P,SW1,*%
%TO.N,*%
X96300000Y-154540000D03*
X96300000Y-149460000D03*
D19*
%TO.P,SW1,1*%
%TO.N,Net-(P1-Pad3)*%
X109000000Y-149460000D03*
%TO.P,SW1,2*%
%TO.N,Net-(D1-Pad1)*%
X112810000Y-149460000D03*
%TO.P,SW1,3*%
%TO.N,Net-(SW1-Pad3)*%
X116620000Y-149460000D03*
%TO.P,SW1,4*%
%TO.N,Net-(P1-Pad1)*%
X109000000Y-154540000D03*
%TO.P,SW1,5*%
%TO.N,Net-(L3-Pad2)*%
X112810000Y-154540000D03*
%TO.P,SW1,6*%
%TO.N,Net-(SW1-Pad6)*%
X116620000Y-154400000D03*
%TD*%
D20*
%TO.N,GNDA*%
X135280802Y-98806000D03*
X130683000Y-96012000D03*
%TO.N,+12VA*%
X149900000Y-141500000D03*
X123444000Y-98806000D03*
X135382000Y-126873000D03*
X123317000Y-90170000D03*
X135382000Y-111125000D03*
%TO.N,-12VA*%
X134366000Y-100457000D03*
X119761000Y-117475000D03*
X134366000Y-100457000D03*
X133223000Y-117475000D03*
X147828000Y-117475000D03*
X149987000Y-115443000D03*
%TO.N,Net-(C14-Pad2)*%
X114704500Y-92813500D03*
X117578500Y-109474000D03*
X117705500Y-102108000D03*
X138303000Y-100584000D03*
X114681000Y-114173000D03*
X117832500Y-98552000D03*
X117578500Y-105664000D03*
%TO.N,Net-(C20-Pad1)*%
X127752000Y-106232000D03*
X127752000Y-122377249D03*
%TO.N,Net-(D1-Pad1)*%
X108000000Y-131000000D03*
%TO.N,Net-(L3-Pad1)*%
X106750000Y-139000000D03*
X108000000Y-139000000D03*
%TO.N,A1*%
X132561000Y-82931000D03*
X127072000Y-88420000D03*
X139700000Y-82931000D03*
X141073500Y-96901000D03*
%TO.N,A2*%
X136652000Y-93726000D03*
X135102500Y-87604500D03*
%TO.N,EN*%
X135001000Y-92837000D03*
X132016500Y-93154500D03*
%TD*%
D21*
%TO.N,GNDA*%
X133477000Y-98806000D02*
X135280802Y-98806000D01*
X130683000Y-96012000D02*
X133477000Y-98806000D01*
%TO.N,+12VA*%
X135400000Y-127000000D02*
X135400000Y-126891000D01*
X123444000Y-90297000D02*
X123317000Y-90170000D01*
X135400000Y-126891000D02*
X135382000Y-126873000D01*
X135382000Y-126873000D02*
X135382000Y-111125000D01*
X135400000Y-127000000D02*
X149900000Y-141500000D01*
X123444000Y-98806000D02*
X123444000Y-90297000D01*
%TO.N,-12VA*%
X147955000Y-117475000D02*
X149987000Y-115443000D01*
X150000000Y-115602000D02*
X150000000Y-115456000D01*
X150000000Y-115456000D02*
X149987000Y-115443000D01*
X119761000Y-117475000D02*
X133223000Y-117475000D01*
X135001000Y-100457000D02*
X134366000Y-100457000D01*
X149987000Y-115443000D02*
X135001000Y-100457000D01*
%TO.N,Net-(C14-Pad2)*%
X122164695Y-98552000D02*
X123143695Y-99531000D01*
X127852000Y-94451000D02*
X140044000Y-94451000D01*
X117832500Y-101981000D02*
X117705500Y-102108000D01*
X117832500Y-98552000D02*
X122164695Y-98552000D01*
X127471000Y-99531000D02*
X127471000Y-94832000D01*
X140335000Y-96647000D02*
X139469500Y-97512500D01*
X140335000Y-94742000D02*
X140335000Y-96647000D01*
X117705500Y-105537000D02*
X117578500Y-105664000D01*
X123143695Y-99531000D02*
X127471000Y-99531000D01*
X114681000Y-92837000D02*
X114704500Y-92813500D01*
X139469500Y-97512500D02*
X139469500Y-99417500D01*
X127471000Y-94832000D02*
X127852000Y-94451000D01*
X117832500Y-98552000D02*
X117832500Y-101981000D01*
X140044000Y-94451000D02*
X140335000Y-94742000D01*
X117705500Y-102108000D02*
X117705500Y-105537000D01*
X139469500Y-99417500D02*
X138303000Y-100584000D01*
X117578500Y-105664000D02*
X117578500Y-109474000D01*
X114681000Y-114173000D02*
X114681000Y-92837000D01*
%TO.N,Net-(C20-Pad1)*%
X133948000Y-117057000D02*
X131445000Y-114554000D01*
X127762000Y-114554000D02*
X127752000Y-114544000D01*
X131445000Y-114554000D02*
X127762000Y-114554000D01*
X133948000Y-117775305D02*
X133948000Y-117057000D01*
X127752000Y-114544000D02*
X127752000Y-106232000D01*
X127752000Y-122377249D02*
X129346056Y-122377249D01*
X129346056Y-122377249D02*
X133948000Y-117775305D01*
D22*
%TO.N,Net-(D1-Pad1)*%
X112810000Y-146810000D02*
X111000000Y-145000000D01*
X111000000Y-134000000D02*
X108000000Y-131000000D01*
X111000000Y-145000000D02*
X111000000Y-134000000D01*
X112810000Y-149460000D02*
X112810000Y-146810000D01*
%TO.N,Net-(L3-Pad1)*%
X108000000Y-139000000D02*
X106750000Y-139000000D01*
X105500000Y-150500000D02*
X105500000Y-147500000D01*
X105500000Y-147500000D02*
X109500000Y-143500000D01*
X109000000Y-139000000D02*
X108000000Y-139000000D01*
X109500000Y-139500000D02*
X109000000Y-139000000D01*
X106960000Y-151960000D02*
X105500000Y-150500000D01*
X149000000Y-151960000D02*
X106960000Y-151960000D01*
X109500000Y-143500000D02*
X109500000Y-139500000D01*
%TO.N,Net-(P1-Pad1)*%
X110000000Y-157000000D02*
X109000000Y-156000000D01*
X149000000Y-154500000D02*
X123000000Y-154500000D01*
X109000000Y-156000000D02*
X109000000Y-154540000D01*
X120500000Y-157000000D02*
X110000000Y-157000000D01*
X123000000Y-154500000D02*
X120500000Y-157000000D01*
D21*
%TO.N,A1*%
X141073500Y-84304500D02*
X139700000Y-82931000D01*
X132561000Y-82931000D02*
X127072000Y-88420000D01*
X141073500Y-96901000D02*
X141073500Y-84304500D01*
%TO.N,A2*%
X136652000Y-93726000D02*
X136652000Y-89154000D01*
X136652000Y-89154000D02*
X135102500Y-87604500D01*
%TO.N,EN*%
X134683500Y-93154500D02*
X135001000Y-92837000D01*
X132016500Y-93154500D02*
X134683500Y-93154500D01*
%TD*%
%TA.AperFunction,Conductor*%
%TO.N,GNDA*%
G36*
X153433621Y-75528502D02*
G01*
X153480114Y-75582158D01*
X153491500Y-75634500D01*
X153491500Y-160865500D01*
X153471498Y-160933621D01*
X153417842Y-160980114D01*
X153365500Y-160991500D01*
X95634500Y-160991500D01*
X95566379Y-160971498D01*
X95519886Y-160917842D01*
X95508500Y-160865500D01*
X95508500Y-156303788D01*
X95528502Y-156235667D01*
X95582158Y-156189174D01*
X95652432Y-156179070D01*
X95676041Y-156184833D01*
X95839174Y-156241802D01*
X95843590Y-156243344D01*
X95848183Y-156244216D01*
X96095785Y-156291224D01*
X96095788Y-156291224D01*
X96100374Y-156292095D01*
X96230959Y-156297226D01*
X96356875Y-156302174D01*
X96356881Y-156302174D01*
X96361543Y-156302357D01*
X96440977Y-156293657D01*
X96616707Y-156274412D01*
X96616712Y-156274411D01*
X96621360Y-156273902D01*
X96734116Y-156244216D01*
X96869594Y-156208548D01*
X96869596Y-156208547D01*
X96874117Y-156207357D01*
X96939957Y-156179070D01*
X97109972Y-156106025D01*
X97114262Y-156104182D01*
X97336519Y-155966646D01*
X97340082Y-155963629D01*
X97340087Y-155963626D01*
X97532439Y-155800787D01*
X97532440Y-155800786D01*
X97536005Y-155797768D01*
X97610116Y-155713261D01*
X97705257Y-155604774D01*
X97705261Y-155604769D01*
X97708339Y-155601259D01*
X97716677Y-155588297D01*
X97847205Y-155385367D01*
X97849733Y-155381437D01*
X97957083Y-155143129D01*
X98028030Y-154891572D01*
X98061014Y-154632291D01*
X98063431Y-154540000D01*
X98061547Y-154514648D01*
X98044407Y-154284000D01*
X98044406Y-154283996D01*
X98044061Y-154279348D01*
X98037461Y-154250177D01*
X97987408Y-154028980D01*
X97986377Y-154024423D01*
X97953667Y-153940308D01*
X97893340Y-153785176D01*
X97893339Y-153785173D01*
X97891647Y-153780823D01*
X97884713Y-153768690D01*
X97791894Y-153606291D01*
X97761951Y-153553902D01*
X97600138Y-153348643D01*
X97409763Y-153169557D01*
X97210371Y-153031233D01*
X97198851Y-153023241D01*
X97198848Y-153023239D01*
X97195009Y-153020576D01*
X97155664Y-153001173D01*
X96964781Y-152907040D01*
X96964778Y-152907039D01*
X96960593Y-152904975D01*
X96933090Y-152896171D01*
X96716123Y-152826720D01*
X96711665Y-152825293D01*
X96453693Y-152783279D01*
X96339942Y-152781790D01*
X96197022Y-152779919D01*
X96197019Y-152779919D01*
X96192345Y-152779858D01*
X95933362Y-152815104D01*
X95928876Y-152816412D01*
X95928874Y-152816412D01*
X95686930Y-152886932D01*
X95686927Y-152886933D01*
X95682433Y-152888243D01*
X95678526Y-152890044D01*
X95607815Y-152895158D01*
X95545475Y-152861182D01*
X95511401Y-152798897D01*
X95508500Y-152772016D01*
X95508500Y-151223788D01*
X95528502Y-151155667D01*
X95582158Y-151109174D01*
X95652432Y-151099070D01*
X95676041Y-151104833D01*
X95839174Y-151161802D01*
X95843590Y-151163344D01*
X95848183Y-151164216D01*
X96095785Y-151211224D01*
X96095788Y-151211224D01*
X96100374Y-151212095D01*
X96230959Y-151217226D01*
X96356875Y-151222174D01*
X96356881Y-151222174D01*
X96361543Y-151222357D01*
X96440977Y-151213657D01*
X96616707Y-151194412D01*
X96616712Y-151194411D01*
X96621360Y-151193902D01*
X96726227Y-151166293D01*
X96869594Y-151128548D01*
X96869596Y-151128547D01*
X96874117Y-151127357D01*
X96934301Y-151101500D01*
X97067478Y-151044282D01*
X97114262Y-151024182D01*
X97336519Y-150886646D01*
X97340082Y-150883629D01*
X97340087Y-150883626D01*
X97532439Y-150720787D01*
X97532440Y-150720786D01*
X97536005Y-150717768D01*
X97647269Y-150590896D01*
X97705257Y-150524774D01*
X97705261Y-150524769D01*
X97708339Y-150521259D01*
X97708442Y-150521099D01*
X104636696Y-150521099D01*
X104637598Y-150527859D01*
X104637598Y-150527861D01*
X104647437Y-150601602D01*
X104647807Y-150604657D01*
X104651309Y-150636889D01*
X104656583Y-150685437D01*
X104658758Y-150691901D01*
X104659478Y-150695176D01*
X104659548Y-150695572D01*
X104659671Y-150695996D01*
X104660462Y-150699216D01*
X104661366Y-150705989D01*
X104683452Y-150766669D01*
X104689139Y-150782294D01*
X104690156Y-150785198D01*
X104716078Y-150862223D01*
X104719596Y-150868077D01*
X104720985Y-150871084D01*
X104721152Y-150871489D01*
X104721357Y-150871865D01*
X104722827Y-150874852D01*
X104725162Y-150881268D01*
X104768730Y-150949920D01*
X104770255Y-150952389D01*
X104812147Y-151022109D01*
X104816834Y-151027066D01*
X104818851Y-151029723D01*
X104819369Y-151030469D01*
X104822344Y-151034402D01*
X104825109Y-151038759D01*
X104828930Y-151043032D01*
X104882908Y-151097010D01*
X104885362Y-151099532D01*
X104940308Y-151157636D01*
X104945956Y-151161474D01*
X104951148Y-151165893D01*
X104950808Y-151166293D01*
X104958800Y-151172902D01*
X106323680Y-152537783D01*
X106330822Y-152545549D01*
X106364471Y-152585367D01*
X106369895Y-152589514D01*
X106369896Y-152589515D01*
X106428962Y-152634674D01*
X106431379Y-152636568D01*
X106494738Y-152687510D01*
X106500857Y-152690547D01*
X106503652Y-152692335D01*
X106504013Y-152692588D01*
X106504380Y-152692790D01*
X106507238Y-152694521D01*
X106512652Y-152698660D01*
X106586262Y-152732985D01*
X106589033Y-152734319D01*
X106661814Y-152770447D01*
X106668435Y-152772098D01*
X106671563Y-152773249D01*
X106671956Y-152773413D01*
X106672361Y-152773532D01*
X106675525Y-152774609D01*
X106681704Y-152777490D01*
X106755498Y-152793985D01*
X106761002Y-152795215D01*
X106764000Y-152795924D01*
X106842801Y-152815572D01*
X106849622Y-152815763D01*
X106852925Y-152816215D01*
X106853809Y-152816374D01*
X106858692Y-152817052D01*
X106863740Y-152818180D01*
X106869463Y-152818500D01*
X106945844Y-152818500D01*
X106949363Y-152818549D01*
X107029257Y-152820781D01*
X107035961Y-152819502D01*
X107042762Y-152818955D01*
X107042804Y-152819475D01*
X107053125Y-152818500D01*
X107577585Y-152818500D01*
X107645706Y-152838502D01*
X107692199Y-152892158D01*
X107702303Y-152962432D01*
X107672809Y-153027012D01*
X107656368Y-153042832D01*
X107637318Y-153058094D01*
X107448808Y-153256742D01*
X107289002Y-153479136D01*
X107160857Y-153721161D01*
X107159385Y-153725184D01*
X107159383Y-153725188D01*
X107101659Y-153882925D01*
X107066743Y-153978337D01*
X107008404Y-154245907D01*
X106986917Y-154518918D01*
X107002682Y-154792320D01*
X107003507Y-154796525D01*
X107003508Y-154796533D01*
X107021244Y-154886934D01*
X107055405Y-155061053D01*
X107056792Y-155065103D01*
X107056793Y-155065108D01*
X107142723Y-155316088D01*
X107144112Y-155320144D01*
X107146039Y-155323975D01*
X107223869Y-155478723D01*
X107267160Y-155564799D01*
X107269586Y-155568328D01*
X107269589Y-155568334D01*
X107372894Y-155718642D01*
X107422274Y-155790490D01*
X107425161Y-155793663D01*
X107425162Y-155793664D01*
X107481700Y-155855799D01*
X107606582Y-155993043D01*
X107816675Y-156168707D01*
X107820316Y-156170991D01*
X108045024Y-156311951D01*
X108045028Y-156311953D01*
X108048664Y-156314234D01*
X108110639Y-156342217D01*
X108202078Y-156383504D01*
X108256610Y-156430824D01*
X108268699Y-156449872D01*
X108270317Y-156452492D01*
X108312147Y-156522109D01*
X108316834Y-156527066D01*
X108318851Y-156529723D01*
X108319369Y-156530469D01*
X108322344Y-156534402D01*
X108325109Y-156538759D01*
X108328930Y-156543032D01*
X108382909Y-156597011D01*
X108385363Y-156599533D01*
X108440308Y-156657636D01*
X108445956Y-156661474D01*
X108451148Y-156665893D01*
X108450808Y-156666292D01*
X108458798Y-156672900D01*
X109363686Y-157577789D01*
X109370828Y-157585556D01*
X109400064Y-157620153D01*
X109400068Y-157620157D01*
X109404471Y-157625367D01*
X109409895Y-157629514D01*
X109409896Y-157629515D01*
X109468962Y-157674674D01*
X109471379Y-157676568D01*
X109534738Y-157727510D01*
X109540857Y-157730547D01*
X109543652Y-157732335D01*
X109544013Y-157732588D01*
X109544380Y-157732790D01*
X109547238Y-157734521D01*
X109552652Y-157738660D01*
X109622391Y-157771180D01*
X109626262Y-157772985D01*
X109629033Y-157774319D01*
X109701814Y-157810447D01*
X109708435Y-157812098D01*
X109711563Y-157813249D01*
X109711957Y-157813413D01*
X109712361Y-157813532D01*
X109715524Y-157814609D01*
X109721704Y-157817490D01*
X109800955Y-157835205D01*
X109803914Y-157835904D01*
X109882802Y-157855573D01*
X109889623Y-157855763D01*
X109892926Y-157856216D01*
X109893808Y-157856375D01*
X109898701Y-157857054D01*
X109903740Y-157858180D01*
X109909463Y-157858500D01*
X109985829Y-157858500D01*
X109989347Y-157858549D01*
X110062437Y-157860591D01*
X110062442Y-157860591D01*
X110069257Y-157860781D01*
X110075958Y-157859503D01*
X110082762Y-157858955D01*
X110082804Y-157859475D01*
X110093125Y-157858500D01*
X120458610Y-157858500D01*
X120469152Y-157858942D01*
X120521099Y-157863304D01*
X120527859Y-157862402D01*
X120527861Y-157862402D01*
X120601602Y-157852563D01*
X120604657Y-157852193D01*
X120636889Y-157848691D01*
X120685437Y-157843417D01*
X120691901Y-157841242D01*
X120695176Y-157840522D01*
X120695572Y-157840452D01*
X120695996Y-157840329D01*
X120699216Y-157839538D01*
X120705989Y-157838634D01*
X120782323Y-157810851D01*
X120785198Y-157809844D01*
X120803773Y-157803593D01*
X120862223Y-157783922D01*
X120868077Y-157780404D01*
X120871084Y-157779015D01*
X120871489Y-157778848D01*
X120871865Y-157778643D01*
X120874852Y-157777173D01*
X120881268Y-157774838D01*
X120949920Y-157731270D01*
X120952389Y-157729745D01*
X121022109Y-157687853D01*
X121027066Y-157683166D01*
X121029723Y-157681149D01*
X121030469Y-157680631D01*
X121034402Y-157677656D01*
X121038759Y-157674891D01*
X121043032Y-157671070D01*
X121097010Y-157617092D01*
X121099532Y-157614638D01*
X121138499Y-157577789D01*
X121157636Y-157559692D01*
X121161474Y-157554044D01*
X121165893Y-157548852D01*
X121166293Y-157549192D01*
X121172902Y-157541200D01*
X123318698Y-155395405D01*
X123381010Y-155361379D01*
X123407793Y-155358500D01*
X147525507Y-155358500D01*
X147593628Y-155378502D01*
X147640121Y-155432158D01*
X147647543Y-155453763D01*
X147648255Y-155460316D01*
X147651027Y-155467711D01*
X147651028Y-155467714D01*
X147685988Y-155560968D01*
X147699385Y-155596705D01*
X147786739Y-155713261D01*
X147903295Y-155800615D01*
X148039684Y-155851745D01*
X148101866Y-155858500D01*
X149898134Y-155858500D01*
X149960316Y-155851745D01*
X150096705Y-155800615D01*
X150213261Y-155713261D01*
X150300615Y-155596705D01*
X150351745Y-155460316D01*
X150358500Y-155398134D01*
X150358500Y-153601866D01*
X150351745Y-153539684D01*
X150300615Y-153403295D01*
X150213261Y-153286739D01*
X150096705Y-153199385D01*
X150084132Y-153194672D01*
X149978203Y-153154960D01*
X149921439Y-153112318D01*
X149896739Y-153045756D01*
X149911947Y-152976408D01*
X149933493Y-152947727D01*
X149947330Y-152933938D01*
X150038096Y-152843489D01*
X150055726Y-152818955D01*
X150165435Y-152666277D01*
X150168453Y-152662077D01*
X150181997Y-152634674D01*
X150265136Y-152466453D01*
X150265137Y-152466451D01*
X150267430Y-152461811D01*
X150332370Y-152248069D01*
X150361529Y-152026590D01*
X150363156Y-151960000D01*
X150344852Y-151737361D01*
X150290431Y-151520702D01*
X150201354Y-151315840D01*
X150104349Y-151165893D01*
X150082822Y-151132617D01*
X150082820Y-151132614D01*
X150080014Y-151128277D01*
X149929670Y-150963051D01*
X149925619Y-150959852D01*
X149925615Y-150959848D01*
X149758414Y-150827800D01*
X149758410Y-150827798D01*
X149754359Y-150824598D01*
X149713053Y-150801796D01*
X149663084Y-150751364D01*
X149648312Y-150681921D01*
X149673428Y-150615516D01*
X149700780Y-150588909D01*
X149744603Y-150557650D01*
X149879860Y-150461173D01*
X150038096Y-150303489D01*
X150042002Y-150298054D01*
X150165435Y-150126277D01*
X150168453Y-150122077D01*
X150179930Y-150098856D01*
X150265136Y-149926453D01*
X150265137Y-149926451D01*
X150267430Y-149921811D01*
X150313354Y-149770657D01*
X150330865Y-149713023D01*
X150330865Y-149713021D01*
X150332370Y-149708069D01*
X150361529Y-149486590D01*
X150361611Y-149483240D01*
X150363074Y-149423365D01*
X150363074Y-149423361D01*
X150363156Y-149420000D01*
X150344852Y-149197361D01*
X150290431Y-148980702D01*
X150201354Y-148775840D01*
X150126715Y-148660465D01*
X150082822Y-148592617D01*
X150082820Y-148592614D01*
X150080014Y-148588277D01*
X149929670Y-148423051D01*
X149925619Y-148419852D01*
X149925615Y-148419848D01*
X149758414Y-148287800D01*
X149758410Y-148287798D01*
X149754359Y-148284598D01*
X149725457Y-148268643D01*
X149594881Y-148196562D01*
X149558789Y-148176638D01*
X149553920Y-148174914D01*
X149553916Y-148174912D01*
X149353087Y-148103795D01*
X149353083Y-148103794D01*
X149348212Y-148102069D01*
X149343119Y-148101162D01*
X149343116Y-148101161D01*
X149133373Y-148063800D01*
X149133367Y-148063799D01*
X149128284Y-148062894D01*
X149054452Y-148061992D01*
X148910081Y-148060228D01*
X148910079Y-148060228D01*
X148904911Y-148060165D01*
X148684091Y-148093955D01*
X148471756Y-148163357D01*
X148273607Y-148266507D01*
X148269474Y-148269610D01*
X148269471Y-148269612D01*
X148245247Y-148287800D01*
X148094965Y-148400635D01*
X147940629Y-148562138D01*
X147937715Y-148566410D01*
X147937714Y-148566411D01*
X147886723Y-148641161D01*
X147814743Y-148746680D01*
X147799003Y-148780590D01*
X147736810Y-148914574D01*
X147720688Y-148949305D01*
X147660989Y-149164570D01*
X147637251Y-149386695D01*
X147637548Y-149391848D01*
X147637548Y-149391851D01*
X147644051Y-149504627D01*
X147650110Y-149609715D01*
X147651247Y-149614761D01*
X147651248Y-149614767D01*
X147671119Y-149702939D01*
X147699222Y-149827639D01*
X147783266Y-150034616D01*
X147899987Y-150225088D01*
X148046250Y-150393938D01*
X148218126Y-150536632D01*
X148227617Y-150542178D01*
X148291445Y-150579476D01*
X148340169Y-150631114D01*
X148353240Y-150700897D01*
X148326509Y-150766669D01*
X148286055Y-150800027D01*
X148273607Y-150806507D01*
X148269474Y-150809610D01*
X148269471Y-150809612D01*
X148131714Y-150913043D01*
X148094965Y-150940635D01*
X148076605Y-150959848D01*
X147978459Y-151062551D01*
X147916934Y-151097981D01*
X147887365Y-151101500D01*
X118123740Y-151101500D01*
X118055619Y-151081498D01*
X118009126Y-151027842D01*
X117999022Y-150957568D01*
X118033256Y-150887815D01*
X118037315Y-150883626D01*
X118157669Y-150759431D01*
X118160202Y-150755983D01*
X118160206Y-150755978D01*
X118317257Y-150542178D01*
X118319795Y-150538723D01*
X118347154Y-150488334D01*
X118448418Y-150301830D01*
X118448419Y-150301828D01*
X118450468Y-150298054D01*
X118516964Y-150122077D01*
X118545751Y-150045895D01*
X118545752Y-150045891D01*
X118547269Y-150041877D01*
X118608407Y-149774933D01*
X118613933Y-149713023D01*
X118632531Y-149504627D01*
X118632531Y-149504625D01*
X118632751Y-149502161D01*
X118632880Y-149489908D01*
X118633167Y-149462484D01*
X118633167Y-149462483D01*
X118633193Y-149460000D01*
X118630466Y-149420000D01*
X118614859Y-149191055D01*
X118614858Y-149191049D01*
X118614567Y-149186778D01*
X118559032Y-148918612D01*
X118467617Y-148660465D01*
X118369431Y-148470234D01*
X118343978Y-148420919D01*
X118343978Y-148420918D01*
X118342013Y-148417112D01*
X118332040Y-148402921D01*
X118240245Y-148272311D01*
X118184545Y-148193057D01*
X117998125Y-147992445D01*
X117994810Y-147989731D01*
X117994806Y-147989728D01*
X117793517Y-147824975D01*
X117786205Y-147818990D01*
X117597381Y-147703279D01*
X117556366Y-147678145D01*
X117556365Y-147678145D01*
X117552704Y-147675901D01*
X117538619Y-147669718D01*
X117305873Y-147567549D01*
X117305869Y-147567548D01*
X117301945Y-147565825D01*
X117038566Y-147490800D01*
X117034324Y-147490196D01*
X117034318Y-147490195D01*
X116833834Y-147461662D01*
X116767443Y-147452213D01*
X116623589Y-147451460D01*
X116497877Y-147450802D01*
X116497871Y-147450802D01*
X116493591Y-147450780D01*
X116489347Y-147451339D01*
X116489343Y-147451339D01*
X116370302Y-147467011D01*
X116222078Y-147486525D01*
X116217938Y-147487658D01*
X116217936Y-147487658D01*
X116145008Y-147507609D01*
X115957928Y-147558788D01*
X115953980Y-147560472D01*
X115709982Y-147664546D01*
X115709978Y-147664548D01*
X115706030Y-147666232D01*
X115644231Y-147703218D01*
X115474725Y-147804664D01*
X115474724Y-147804665D01*
X115471043Y-147806868D01*
X115257318Y-147978094D01*
X115068808Y-148176742D01*
X114909002Y-148399136D01*
X114906998Y-148402921D01*
X114826185Y-148555551D01*
X114776632Y-148606394D01*
X114707457Y-148622376D01*
X114640624Y-148598422D01*
X114602864Y-148554382D01*
X114533978Y-148420919D01*
X114533978Y-148420918D01*
X114532013Y-148417112D01*
X114522040Y-148402921D01*
X114430245Y-148272311D01*
X114374545Y-148193057D01*
X114188125Y-147992445D01*
X114184810Y-147989731D01*
X114184806Y-147989728D01*
X113983517Y-147824975D01*
X113976205Y-147818990D01*
X113854713Y-147744540D01*
X113746360Y-147678141D01*
X113746356Y-147678139D01*
X113742704Y-147675901D01*
X113738777Y-147674177D01*
X113736127Y-147672792D01*
X113685024Y-147623507D01*
X113668500Y-147561129D01*
X113668500Y-146851391D01*
X113668942Y-146840848D01*
X113672733Y-146795700D01*
X113673304Y-146788902D01*
X113662563Y-146708395D01*
X113662193Y-146705341D01*
X113654154Y-146631349D01*
X113653417Y-146624563D01*
X113651239Y-146618092D01*
X113650527Y-146614852D01*
X113650450Y-146614417D01*
X113650334Y-146614017D01*
X113649537Y-146610774D01*
X113648635Y-146604012D01*
X113620839Y-146527644D01*
X113619841Y-146524794D01*
X113596098Y-146454243D01*
X113593922Y-146447777D01*
X113590409Y-146441930D01*
X113589007Y-146438896D01*
X113588847Y-146438508D01*
X113588636Y-146438121D01*
X113587172Y-146435146D01*
X113584838Y-146428733D01*
X113541333Y-146360180D01*
X113539715Y-146357561D01*
X113501369Y-146293743D01*
X113497853Y-146287891D01*
X113493160Y-146282928D01*
X113491150Y-146280280D01*
X113490627Y-146279527D01*
X113487654Y-146275596D01*
X113484891Y-146271242D01*
X113481071Y-146266968D01*
X113427075Y-146212972D01*
X113424621Y-146210450D01*
X113374381Y-146157323D01*
X113369692Y-146152364D01*
X113364044Y-146148526D01*
X113358852Y-146144107D01*
X113359192Y-146143707D01*
X113351203Y-146137100D01*
X111895405Y-144681302D01*
X111861379Y-144618990D01*
X111858500Y-144592207D01*
X111858500Y-134041391D01*
X111858942Y-134030848D01*
X111862733Y-133985700D01*
X111863304Y-133978902D01*
X111852563Y-133898395D01*
X111852193Y-133895341D01*
X111844154Y-133821349D01*
X111843417Y-133814563D01*
X111841239Y-133808092D01*
X111840527Y-133804852D01*
X111840450Y-133804417D01*
X111840334Y-133804017D01*
X111839537Y-133800774D01*
X111838635Y-133794012D01*
X111810838Y-133717638D01*
X111809839Y-133714788D01*
X111786100Y-133644247D01*
X111786098Y-133644242D01*
X111783922Y-133637777D01*
X111780405Y-133631924D01*
X111779015Y-133628916D01*
X111778848Y-133628511D01*
X111778643Y-133628135D01*
X111777173Y-133625148D01*
X111774838Y-133618732D01*
X111731270Y-133550080D01*
X111729745Y-133547611D01*
X111687853Y-133477891D01*
X111683166Y-133472934D01*
X111681149Y-133470277D01*
X111680639Y-133469543D01*
X111677661Y-133465605D01*
X111674891Y-133461241D01*
X111671071Y-133456968D01*
X111617075Y-133402972D01*
X111614621Y-133400450D01*
X111564381Y-133347323D01*
X111559692Y-133342364D01*
X111554044Y-133338526D01*
X111548852Y-133334107D01*
X111549192Y-133333707D01*
X111541203Y-133327100D01*
X108835302Y-130621199D01*
X108815278Y-130595104D01*
X108742341Y-130468774D01*
X108739040Y-130463056D01*
X108611253Y-130321134D01*
X108456752Y-130208882D01*
X108450724Y-130206198D01*
X108450722Y-130206197D01*
X108288319Y-130133891D01*
X108288318Y-130133891D01*
X108282288Y-130131206D01*
X108188887Y-130111353D01*
X108101944Y-130092872D01*
X108101939Y-130092872D01*
X108095487Y-130091500D01*
X107904513Y-130091500D01*
X107898061Y-130092872D01*
X107898056Y-130092872D01*
X107811113Y-130111353D01*
X107717712Y-130131206D01*
X107711682Y-130133891D01*
X107711681Y-130133891D01*
X107549278Y-130206197D01*
X107549276Y-130206198D01*
X107543248Y-130208882D01*
X107388747Y-130321134D01*
X107260960Y-130463056D01*
X107165473Y-130628444D01*
X107106458Y-130810072D01*
X107086496Y-131000000D01*
X107106458Y-131189928D01*
X107165473Y-131371556D01*
X107260960Y-131536944D01*
X107388747Y-131678866D01*
X107543248Y-131791118D01*
X107549276Y-131793802D01*
X107549278Y-131793803D01*
X107582785Y-131808721D01*
X107620631Y-131834733D01*
X110104595Y-134318698D01*
X110138621Y-134381010D01*
X110141500Y-134407793D01*
X110141500Y-138623207D01*
X110121498Y-138691328D01*
X110067842Y-138737821D01*
X109997568Y-138747925D01*
X109932988Y-138718431D01*
X109926405Y-138712302D01*
X109636320Y-138422217D01*
X109629177Y-138414450D01*
X109599935Y-138379847D01*
X109595529Y-138374633D01*
X109531031Y-138325321D01*
X109528615Y-138323427D01*
X109470583Y-138276768D01*
X109470582Y-138276767D01*
X109465262Y-138272490D01*
X109459143Y-138269453D01*
X109456348Y-138267665D01*
X109455987Y-138267412D01*
X109455620Y-138267210D01*
X109452762Y-138265479D01*
X109447348Y-138261340D01*
X109373736Y-138227014D01*
X109370964Y-138225680D01*
X109304296Y-138192586D01*
X109298186Y-138189553D01*
X109291565Y-138187902D01*
X109288437Y-138186751D01*
X109288044Y-138186587D01*
X109287639Y-138186468D01*
X109284475Y-138185391D01*
X109278296Y-138182510D01*
X109199000Y-138164785D01*
X109196002Y-138164076D01*
X109123821Y-138146079D01*
X109123820Y-138146079D01*
X109117199Y-138144428D01*
X109110378Y-138144237D01*
X109107075Y-138143785D01*
X109106191Y-138143626D01*
X109101308Y-138142948D01*
X109096260Y-138141820D01*
X109090537Y-138141500D01*
X109014156Y-138141500D01*
X109010637Y-138141451D01*
X108930743Y-138139219D01*
X108924039Y-138140498D01*
X108917238Y-138141045D01*
X108917196Y-138140525D01*
X108906875Y-138141500D01*
X108331693Y-138141500D01*
X108292756Y-138135333D01*
X108288319Y-138133891D01*
X108282288Y-138131206D01*
X108275836Y-138129834D01*
X108275831Y-138129833D01*
X108101944Y-138092872D01*
X108101939Y-138092872D01*
X108095487Y-138091500D01*
X107904513Y-138091500D01*
X107898061Y-138092872D01*
X107898056Y-138092872D01*
X107724169Y-138129833D01*
X107724164Y-138129834D01*
X107717712Y-138131206D01*
X107711681Y-138133891D01*
X107707244Y-138135333D01*
X107668307Y-138141500D01*
X107081693Y-138141500D01*
X107042756Y-138135333D01*
X107038319Y-138133891D01*
X107032288Y-138131206D01*
X107025836Y-138129834D01*
X107025831Y-138129833D01*
X106851944Y-138092872D01*
X106851939Y-138092872D01*
X106845487Y-138091500D01*
X106654513Y-138091500D01*
X106648061Y-138092872D01*
X106648056Y-138092872D01*
X106561113Y-138111353D01*
X106467712Y-138131206D01*
X106461682Y-138133891D01*
X106461681Y-138133891D01*
X106299278Y-138206197D01*
X106299276Y-138206198D01*
X106293248Y-138208882D01*
X106287907Y-138212762D01*
X106287906Y-138212763D01*
X106269186Y-138226364D01*
X106138747Y-138321134D01*
X106134326Y-138326044D01*
X106134325Y-138326045D01*
X106047732Y-138422217D01*
X106010960Y-138463056D01*
X105915473Y-138628444D01*
X105856458Y-138810072D01*
X105855768Y-138816633D01*
X105855768Y-138816635D01*
X105846749Y-138902450D01*
X105836496Y-139000000D01*
X105837186Y-139006565D01*
X105855605Y-139181808D01*
X105856458Y-139189928D01*
X105915473Y-139371556D01*
X106010960Y-139536944D01*
X106015378Y-139541851D01*
X106015379Y-139541852D01*
X106092235Y-139627209D01*
X106138747Y-139678866D01*
X106293248Y-139791118D01*
X106299276Y-139793802D01*
X106299278Y-139793803D01*
X106461681Y-139866109D01*
X106467712Y-139868794D01*
X106561112Y-139888647D01*
X106648056Y-139907128D01*
X106648061Y-139907128D01*
X106654513Y-139908500D01*
X106845487Y-139908500D01*
X106851939Y-139907128D01*
X106851944Y-139907128D01*
X107025831Y-139870167D01*
X107025836Y-139870166D01*
X107032288Y-139868794D01*
X107038319Y-139866109D01*
X107042756Y-139864667D01*
X107081693Y-139858500D01*
X107668307Y-139858500D01*
X107707244Y-139864667D01*
X107711681Y-139866109D01*
X107717712Y-139868794D01*
X107724164Y-139870166D01*
X107724169Y-139870167D01*
X107898056Y-139907128D01*
X107898061Y-139907128D01*
X107904513Y-139908500D01*
X108095487Y-139908500D01*
X108101939Y-139907128D01*
X108101944Y-139907128D01*
X108275831Y-139870167D01*
X108275836Y-139870166D01*
X108282288Y-139868794D01*
X108288319Y-139866109D01*
X108292756Y-139864667D01*
X108331693Y-139858500D01*
X108515500Y-139858500D01*
X108583621Y-139878502D01*
X108630114Y-139932158D01*
X108641500Y-139984500D01*
X108641500Y-143092208D01*
X108621498Y-143160329D01*
X108604595Y-143181303D01*
X106758036Y-145027861D01*
X104922217Y-146863680D01*
X104914451Y-146870822D01*
X104874633Y-146904471D01*
X104870486Y-146909895D01*
X104870485Y-146909896D01*
X104825326Y-146968962D01*
X104823432Y-146971379D01*
X104772490Y-147034738D01*
X104769453Y-147040857D01*
X104767665Y-147043652D01*
X104767412Y-147044013D01*
X104767210Y-147044380D01*
X104765479Y-147047238D01*
X104761340Y-147052652D01*
X104758459Y-147058831D01*
X104727015Y-147126262D01*
X104725681Y-147129033D01*
X104689553Y-147201814D01*
X104687902Y-147208435D01*
X104686751Y-147211563D01*
X104686587Y-147211956D01*
X104686468Y-147212361D01*
X104685391Y-147215525D01*
X104682510Y-147221704D01*
X104681023Y-147228358D01*
X104664785Y-147301002D01*
X104664076Y-147303998D01*
X104644428Y-147382801D01*
X104644237Y-147389622D01*
X104643785Y-147392925D01*
X104643626Y-147393809D01*
X104642948Y-147398692D01*
X104641820Y-147403740D01*
X104641500Y-147409463D01*
X104641500Y-147485844D01*
X104641451Y-147489363D01*
X104639219Y-147569257D01*
X104640498Y-147575961D01*
X104641045Y-147582762D01*
X104640525Y-147582804D01*
X104641500Y-147593125D01*
X104641500Y-150458610D01*
X104641058Y-150469152D01*
X104636696Y-150521099D01*
X97708442Y-150521099D01*
X97749332Y-150457529D01*
X97847205Y-150305367D01*
X97849733Y-150301437D01*
X97957083Y-150063129D01*
X97963077Y-150041877D01*
X98026760Y-149816076D01*
X98026761Y-149816073D01*
X98028030Y-149811572D01*
X98061014Y-149552291D01*
X98063431Y-149460000D01*
X98060709Y-149423365D01*
X98044407Y-149204000D01*
X98044406Y-149203996D01*
X98044061Y-149199348D01*
X98042185Y-149191055D01*
X97987408Y-148948980D01*
X97986377Y-148944423D01*
X97976340Y-148918612D01*
X97893340Y-148705176D01*
X97893339Y-148705173D01*
X97891647Y-148700823D01*
X97866404Y-148656656D01*
X97764270Y-148477960D01*
X97761951Y-148473902D01*
X97600138Y-148268643D01*
X97409763Y-148089557D01*
X97195009Y-147940576D01*
X97128530Y-147907792D01*
X96964781Y-147827040D01*
X96964778Y-147827039D01*
X96960593Y-147824975D01*
X96940981Y-147818697D01*
X96716123Y-147746720D01*
X96711665Y-147745293D01*
X96453693Y-147703279D01*
X96339942Y-147701790D01*
X96197022Y-147699919D01*
X96197019Y-147699919D01*
X96192345Y-147699858D01*
X95933362Y-147735104D01*
X95928876Y-147736412D01*
X95928874Y-147736412D01*
X95686930Y-147806932D01*
X95686927Y-147806933D01*
X95682433Y-147808243D01*
X95678526Y-147810044D01*
X95607815Y-147815158D01*
X95545475Y-147781182D01*
X95511401Y-147718897D01*
X95508500Y-147692016D01*
X95508500Y-138235469D01*
X98087095Y-138235469D01*
X98087392Y-138240622D01*
X98087392Y-138240625D01*
X98097647Y-138418478D01*
X98100427Y-138466697D01*
X98101564Y-138471743D01*
X98101565Y-138471749D01*
X98133741Y-138614523D01*
X98151346Y-138692642D01*
X98153288Y-138697424D01*
X98153289Y-138697428D01*
X98196480Y-138803794D01*
X98238484Y-138907237D01*
X98359501Y-139104719D01*
X98511147Y-139279784D01*
X98689349Y-139427730D01*
X98889322Y-139544584D01*
X99105694Y-139627209D01*
X99110760Y-139628240D01*
X99110761Y-139628240D01*
X99163846Y-139639040D01*
X99332656Y-139673385D01*
X99463324Y-139678176D01*
X99558949Y-139681683D01*
X99558953Y-139681683D01*
X99564113Y-139681872D01*
X99569233Y-139681216D01*
X99569235Y-139681216D01*
X99642270Y-139671860D01*
X99793847Y-139652442D01*
X99798795Y-139650957D01*
X99798802Y-139650956D01*
X100010747Y-139587369D01*
X100015690Y-139585886D01*
X100096236Y-139546427D01*
X100219049Y-139486262D01*
X100219052Y-139486260D01*
X100223684Y-139483991D01*
X100412243Y-139349494D01*
X100576303Y-139186005D01*
X100711458Y-138997917D01*
X100758641Y-138902450D01*
X100811784Y-138794922D01*
X100811785Y-138794920D01*
X100814078Y-138790280D01*
X100881408Y-138568671D01*
X100911640Y-138339041D01*
X100911975Y-138325326D01*
X100913245Y-138273365D01*
X100913245Y-138273361D01*
X100913327Y-138270000D01*
X100904650Y-138164456D01*
X100894773Y-138044318D01*
X100894772Y-138044312D01*
X100894349Y-138039167D01*
X100837925Y-137814533D01*
X100835866Y-137809797D01*
X100747630Y-137606868D01*
X100747628Y-137606865D01*
X100745570Y-137602131D01*
X100619764Y-137407665D01*
X100529848Y-137308848D01*
X100498796Y-137245002D01*
X100507192Y-137174504D01*
X100552369Y-137119736D01*
X100578812Y-137106067D01*
X100638297Y-137083767D01*
X100646705Y-137080615D01*
X100763261Y-136993261D01*
X100850615Y-136876705D01*
X100901745Y-136740316D01*
X100908500Y-136678134D01*
X100908500Y-134781866D01*
X100901745Y-134719684D01*
X100850615Y-134583295D01*
X100763261Y-134466739D01*
X100646705Y-134379385D01*
X100510316Y-134328255D01*
X100448134Y-134321500D01*
X98551866Y-134321500D01*
X98489684Y-134328255D01*
X98353295Y-134379385D01*
X98236739Y-134466739D01*
X98149385Y-134583295D01*
X98098255Y-134719684D01*
X98091500Y-134781866D01*
X98091500Y-136678134D01*
X98098255Y-136740316D01*
X98149385Y-136876705D01*
X98236739Y-136993261D01*
X98353295Y-137080615D01*
X98361704Y-137083767D01*
X98361705Y-137083768D01*
X98421164Y-137106058D01*
X98477929Y-137148699D01*
X98502629Y-137215261D01*
X98487422Y-137284609D01*
X98468029Y-137311091D01*
X98401639Y-137380564D01*
X98398725Y-137384836D01*
X98398724Y-137384837D01*
X98383152Y-137407665D01*
X98271119Y-137571899D01*
X98173602Y-137781981D01*
X98111707Y-138005169D01*
X98087095Y-138235469D01*
X95508500Y-138235469D01*
X95508500Y-126993856D01*
X96371601Y-126993856D01*
X96378059Y-127003216D01*
X96394361Y-127017512D01*
X96400901Y-127022530D01*
X96640144Y-127182387D01*
X96647281Y-127186508D01*
X96905349Y-127313772D01*
X96912953Y-127316922D01*
X97185420Y-127409412D01*
X97193383Y-127411546D01*
X97475600Y-127467683D01*
X97483751Y-127468756D01*
X97770881Y-127487575D01*
X97779119Y-127487575D01*
X98066249Y-127468756D01*
X98074400Y-127467683D01*
X98356617Y-127411546D01*
X98364580Y-127409412D01*
X98637047Y-127316922D01*
X98644651Y-127313772D01*
X98902719Y-127186508D01*
X98909856Y-127182387D01*
X99149099Y-127022530D01*
X99155639Y-127017512D01*
X99170074Y-127004853D01*
X99177050Y-126993856D01*
X102821601Y-126993856D01*
X102828059Y-127003216D01*
X102844361Y-127017512D01*
X102850901Y-127022530D01*
X103090144Y-127182387D01*
X103097281Y-127186508D01*
X103355349Y-127313772D01*
X103362953Y-127316922D01*
X103635420Y-127409412D01*
X103643383Y-127411546D01*
X103925600Y-127467683D01*
X103933751Y-127468756D01*
X104220881Y-127487575D01*
X104229119Y-127487575D01*
X104516249Y-127468756D01*
X104524400Y-127467683D01*
X104806617Y-127411546D01*
X104814580Y-127409412D01*
X105087047Y-127316922D01*
X105094651Y-127313772D01*
X105352719Y-127186508D01*
X105359856Y-127182387D01*
X105599099Y-127022530D01*
X105605639Y-127017512D01*
X105620074Y-127004853D01*
X105628472Y-126991614D01*
X105622638Y-126981849D01*
X104237810Y-125597020D01*
X104223869Y-125589408D01*
X104222034Y-125589539D01*
X104215420Y-125593790D01*
X102829116Y-126980095D01*
X102821601Y-126993856D01*
X99177050Y-126993856D01*
X99178472Y-126991614D01*
X99172638Y-126981849D01*
X97787810Y-125597020D01*
X97773869Y-125589408D01*
X97772034Y-125589539D01*
X97765420Y-125593790D01*
X96379116Y-126980095D01*
X96371601Y-126993856D01*
X95508500Y-126993856D01*
X95508500Y-126274639D01*
X95528502Y-126206518D01*
X95582158Y-126160025D01*
X95652432Y-126149921D01*
X95717012Y-126179415D01*
X95747506Y-126218911D01*
X95813492Y-126352718D01*
X95817613Y-126359855D01*
X95977470Y-126599099D01*
X95982488Y-126605639D01*
X95995147Y-126620074D01*
X96008386Y-126628472D01*
X96018151Y-126622638D01*
X97402980Y-125237810D01*
X97409357Y-125226131D01*
X98139408Y-125226131D01*
X98139539Y-125227966D01*
X98143790Y-125234580D01*
X99530095Y-126620884D01*
X99543856Y-126628399D01*
X99553216Y-126621941D01*
X99567512Y-126605639D01*
X99572530Y-126599099D01*
X99732387Y-126359855D01*
X99736508Y-126352718D01*
X99863772Y-126094651D01*
X99866922Y-126087047D01*
X99959412Y-125814580D01*
X99961546Y-125806617D01*
X100017683Y-125524400D01*
X100018756Y-125516249D01*
X100037575Y-125229119D01*
X101962425Y-125229119D01*
X101981244Y-125516249D01*
X101982317Y-125524400D01*
X102038454Y-125806617D01*
X102040588Y-125814580D01*
X102133078Y-126087047D01*
X102136228Y-126094651D01*
X102263492Y-126352718D01*
X102267613Y-126359855D01*
X102427470Y-126599099D01*
X102432488Y-126605639D01*
X102445147Y-126620074D01*
X102458386Y-126628472D01*
X102468151Y-126622638D01*
X103852980Y-125237810D01*
X103859357Y-125226131D01*
X104589408Y-125226131D01*
X104589539Y-125227966D01*
X104593790Y-125234580D01*
X105980095Y-126620884D01*
X105993856Y-126628399D01*
X106003216Y-126621941D01*
X106017512Y-126605639D01*
X106022530Y-126599099D01*
X106182387Y-126359855D01*
X106186508Y-126352718D01*
X106313772Y-126094651D01*
X106316922Y-126087047D01*
X106409412Y-125814580D01*
X106411546Y-125806617D01*
X106467683Y-125524400D01*
X106468756Y-125516249D01*
X106487575Y-125229119D01*
X106487575Y-125220881D01*
X106468756Y-124933751D01*
X106467683Y-124925600D01*
X106411546Y-124643383D01*
X106409412Y-124635420D01*
X106316922Y-124362953D01*
X106313772Y-124355349D01*
X106186508Y-124097282D01*
X106182387Y-124090145D01*
X106022530Y-123850901D01*
X106017512Y-123844361D01*
X106004853Y-123829926D01*
X105991614Y-123821528D01*
X105981849Y-123827362D01*
X104597020Y-125212190D01*
X104589408Y-125226131D01*
X103859357Y-125226131D01*
X103860592Y-125223869D01*
X103860461Y-125222034D01*
X103856210Y-125215420D01*
X102469905Y-123829116D01*
X102456144Y-123821601D01*
X102446784Y-123828059D01*
X102432488Y-123844361D01*
X102427470Y-123850901D01*
X102267613Y-124090145D01*
X102263492Y-124097282D01*
X102136228Y-124355349D01*
X102133078Y-124362953D01*
X102040588Y-124635420D01*
X102038454Y-124643383D01*
X101982317Y-124925600D01*
X101981244Y-124933751D01*
X101962425Y-125220881D01*
X101962425Y-125229119D01*
X100037575Y-125229119D01*
X100037575Y-125220881D01*
X100018756Y-124933751D01*
X100017683Y-124925600D01*
X99961546Y-124643383D01*
X99959412Y-124635420D01*
X99866922Y-124362953D01*
X99863772Y-124355349D01*
X99736508Y-124097282D01*
X99732387Y-124090145D01*
X99572530Y-123850901D01*
X99567512Y-123844361D01*
X99554853Y-123829926D01*
X99541614Y-123821528D01*
X99531849Y-123827362D01*
X98147020Y-125212190D01*
X98139408Y-125226131D01*
X97409357Y-125226131D01*
X97410592Y-125223869D01*
X97410461Y-125222034D01*
X97406210Y-125215420D01*
X96019905Y-123829116D01*
X96006144Y-123821601D01*
X95996784Y-123828059D01*
X95982488Y-123844361D01*
X95977470Y-123850901D01*
X95817613Y-124090145D01*
X95813492Y-124097282D01*
X95747506Y-124231089D01*
X95699438Y-124283338D01*
X95630752Y-124301305D01*
X95563256Y-124279286D01*
X95518380Y-124224271D01*
X95508500Y-124175361D01*
X95508500Y-123458386D01*
X96371528Y-123458386D01*
X96377362Y-123468151D01*
X97762190Y-124852980D01*
X97776131Y-124860592D01*
X97777966Y-124860461D01*
X97784580Y-124856210D01*
X99170884Y-123469905D01*
X99178399Y-123456144D01*
X99171941Y-123446784D01*
X99155639Y-123432488D01*
X99149099Y-123427470D01*
X98909856Y-123267613D01*
X98902719Y-123263492D01*
X98644651Y-123136228D01*
X98637047Y-123133078D01*
X98364580Y-123040588D01*
X98356617Y-123038454D01*
X98074400Y-122982317D01*
X98066249Y-122981244D01*
X97779119Y-122962425D01*
X97770881Y-122962425D01*
X97483751Y-122981244D01*
X97475600Y-122982317D01*
X97193383Y-123038454D01*
X97185420Y-123040588D01*
X96912953Y-123133078D01*
X96905349Y-123136228D01*
X96647282Y-123263492D01*
X96640145Y-123267613D01*
X96400901Y-123427470D01*
X96394361Y-123432488D01*
X96379926Y-123445147D01*
X96371528Y-123458386D01*
X95508500Y-123458386D01*
X95508500Y-122000000D01*
X99486835Y-122000000D01*
X99505465Y-122236711D01*
X99560895Y-122467594D01*
X99562788Y-122472165D01*
X99562789Y-122472167D01*
X99604744Y-122573455D01*
X99651760Y-122686963D01*
X99654346Y-122691183D01*
X99773241Y-122885202D01*
X99773245Y-122885208D01*
X99775824Y-122889416D01*
X99878224Y-123009311D01*
X99921512Y-123059994D01*
X99930031Y-123069969D01*
X100110584Y-123224176D01*
X100114792Y-123226755D01*
X100114798Y-123226759D01*
X100211061Y-123285749D01*
X100313037Y-123348240D01*
X100317607Y-123350133D01*
X100317611Y-123350135D01*
X100504316Y-123427470D01*
X100532406Y-123439105D01*
X100603379Y-123456144D01*
X100758476Y-123493380D01*
X100758482Y-123493381D01*
X100763289Y-123494535D01*
X101000000Y-123513165D01*
X101236711Y-123494535D01*
X101241518Y-123493381D01*
X101241524Y-123493380D01*
X101387283Y-123458386D01*
X102821528Y-123458386D01*
X102827362Y-123468151D01*
X104212190Y-124852980D01*
X104226131Y-124860592D01*
X104227966Y-124860461D01*
X104234580Y-124856210D01*
X105620884Y-123469905D01*
X105628399Y-123456144D01*
X105621941Y-123446784D01*
X105605639Y-123432488D01*
X105599099Y-123427470D01*
X105359856Y-123267613D01*
X105352719Y-123263492D01*
X105094651Y-123136228D01*
X105087047Y-123133078D01*
X104814580Y-123040588D01*
X104806617Y-123038454D01*
X104524400Y-122982317D01*
X104516249Y-122981244D01*
X104229119Y-122962425D01*
X104220881Y-122962425D01*
X103933751Y-122981244D01*
X103925600Y-122982317D01*
X103643383Y-123038454D01*
X103635420Y-123040588D01*
X103362953Y-123133078D01*
X103355349Y-123136228D01*
X103097282Y-123263492D01*
X103090145Y-123267613D01*
X102850901Y-123427470D01*
X102844361Y-123432488D01*
X102829926Y-123445147D01*
X102821528Y-123458386D01*
X101387283Y-123458386D01*
X101396621Y-123456144D01*
X101467594Y-123439105D01*
X101495684Y-123427470D01*
X101682389Y-123350135D01*
X101682393Y-123350133D01*
X101686963Y-123348240D01*
X101788939Y-123285749D01*
X101885202Y-123226759D01*
X101885208Y-123226755D01*
X101889416Y-123224176D01*
X102069969Y-123069969D01*
X102078489Y-123059994D01*
X102121776Y-123009311D01*
X102224176Y-122889416D01*
X102226755Y-122885208D01*
X102226759Y-122885202D01*
X102345654Y-122691183D01*
X102348240Y-122686963D01*
X102395257Y-122573455D01*
X102437211Y-122472167D01*
X102437212Y-122472165D01*
X102439105Y-122467594D01*
X102494535Y-122236711D01*
X102513165Y-122000000D01*
X102494535Y-121763289D01*
X102481192Y-121707709D01*
X102452003Y-121586131D01*
X102439105Y-121532406D01*
X102437211Y-121527833D01*
X102350135Y-121317611D01*
X102350133Y-121317607D01*
X102348240Y-121313037D01*
X102345654Y-121308817D01*
X102226759Y-121114798D01*
X102226755Y-121114792D01*
X102224176Y-121110584D01*
X102069969Y-120930031D01*
X101889416Y-120775824D01*
X101885208Y-120773245D01*
X101885202Y-120773241D01*
X101691183Y-120654346D01*
X101686963Y-120651760D01*
X101682393Y-120649867D01*
X101682389Y-120649865D01*
X101472167Y-120562789D01*
X101472165Y-120562788D01*
X101467594Y-120560895D01*
X101396622Y-120543856D01*
X102821601Y-120543856D01*
X102828059Y-120553216D01*
X102844361Y-120567512D01*
X102850901Y-120572530D01*
X103090144Y-120732387D01*
X103097281Y-120736508D01*
X103355349Y-120863772D01*
X103362953Y-120866922D01*
X103635420Y-120959412D01*
X103643383Y-120961546D01*
X103925600Y-121017683D01*
X103933751Y-121018756D01*
X104220881Y-121037575D01*
X104229119Y-121037575D01*
X104516249Y-121018756D01*
X104524400Y-121017683D01*
X104806617Y-120961546D01*
X104814580Y-120959412D01*
X105087047Y-120866922D01*
X105094651Y-120863772D01*
X105352719Y-120736508D01*
X105359856Y-120732387D01*
X105599099Y-120572530D01*
X105605639Y-120567512D01*
X105620074Y-120554853D01*
X105628472Y-120541614D01*
X105622638Y-120531849D01*
X104237810Y-119147020D01*
X104223869Y-119139408D01*
X104222034Y-119139539D01*
X104215420Y-119143790D01*
X102829116Y-120530095D01*
X102821601Y-120543856D01*
X101396622Y-120543856D01*
X101387283Y-120541614D01*
X101241524Y-120506620D01*
X101241518Y-120506619D01*
X101236711Y-120505465D01*
X101000000Y-120486835D01*
X100763289Y-120505465D01*
X100758482Y-120506619D01*
X100758476Y-120506620D01*
X100612717Y-120541614D01*
X100532406Y-120560895D01*
X100527835Y-120562788D01*
X100527833Y-120562789D01*
X100317611Y-120649865D01*
X100317607Y-120649867D01*
X100313037Y-120651760D01*
X100308817Y-120654346D01*
X100114798Y-120773241D01*
X100114792Y-120773245D01*
X100110584Y-120775824D01*
X99930031Y-120930031D01*
X99775824Y-121110584D01*
X99773245Y-121114792D01*
X99773241Y-121114798D01*
X99654346Y-121308817D01*
X99651760Y-121313037D01*
X99649867Y-121317607D01*
X99649865Y-121317611D01*
X99562789Y-121527833D01*
X99560895Y-121532406D01*
X99547997Y-121586131D01*
X99518809Y-121707709D01*
X99505465Y-121763289D01*
X99486835Y-122000000D01*
X95508500Y-122000000D01*
X95508500Y-120543856D01*
X96371601Y-120543856D01*
X96378059Y-120553216D01*
X96394361Y-120567512D01*
X96400901Y-120572530D01*
X96640144Y-120732387D01*
X96647281Y-120736508D01*
X96905349Y-120863772D01*
X96912953Y-120866922D01*
X97185420Y-120959412D01*
X97193383Y-120961546D01*
X97475600Y-121017683D01*
X97483751Y-121018756D01*
X97770881Y-121037575D01*
X97779119Y-121037575D01*
X98066249Y-121018756D01*
X98074400Y-121017683D01*
X98356617Y-120961546D01*
X98364580Y-120959412D01*
X98637047Y-120866922D01*
X98644651Y-120863772D01*
X98902719Y-120736508D01*
X98909856Y-120732387D01*
X99149099Y-120572530D01*
X99155639Y-120567512D01*
X99170074Y-120554853D01*
X99178472Y-120541614D01*
X99172638Y-120531849D01*
X97787810Y-119147020D01*
X97773869Y-119139408D01*
X97772034Y-119139539D01*
X97765420Y-119143790D01*
X96379116Y-120530095D01*
X96371601Y-120543856D01*
X95508500Y-120543856D01*
X95508500Y-119824639D01*
X95528502Y-119756518D01*
X95582158Y-119710025D01*
X95652432Y-119699921D01*
X95717012Y-119729415D01*
X95747506Y-119768911D01*
X95813492Y-119902718D01*
X95817613Y-119909855D01*
X95977470Y-120149099D01*
X95982488Y-120155639D01*
X95995147Y-120170074D01*
X96008386Y-120178472D01*
X96018151Y-120172638D01*
X97402980Y-118787810D01*
X97409357Y-118776131D01*
X98139408Y-118776131D01*
X98139539Y-118777966D01*
X98143790Y-118784580D01*
X99530095Y-120170884D01*
X99543856Y-120178399D01*
X99553216Y-120171941D01*
X99567512Y-120155639D01*
X99572530Y-120149099D01*
X99732387Y-119909855D01*
X99736508Y-119902718D01*
X99863772Y-119644651D01*
X99866922Y-119637047D01*
X99959412Y-119364580D01*
X99961546Y-119356617D01*
X100017683Y-119074400D01*
X100018756Y-119066249D01*
X100037575Y-118779119D01*
X101962425Y-118779119D01*
X101981244Y-119066249D01*
X101982317Y-119074400D01*
X102038454Y-119356617D01*
X102040588Y-119364580D01*
X102133078Y-119637047D01*
X102136228Y-119644651D01*
X102263492Y-119902718D01*
X102267613Y-119909855D01*
X102427470Y-120149099D01*
X102432488Y-120155639D01*
X102445147Y-120170074D01*
X102458386Y-120178472D01*
X102468151Y-120172638D01*
X103852980Y-118787810D01*
X103859357Y-118776131D01*
X104589408Y-118776131D01*
X104589539Y-118777966D01*
X104593790Y-118784580D01*
X105980095Y-120170884D01*
X105993856Y-120178399D01*
X106003216Y-120171941D01*
X106017512Y-120155639D01*
X106022530Y-120149099D01*
X106182387Y-119909855D01*
X106186508Y-119902718D01*
X106313772Y-119644651D01*
X106316922Y-119637047D01*
X106409412Y-119364580D01*
X106411546Y-119356617D01*
X106467683Y-119074400D01*
X106468756Y-119066249D01*
X106487575Y-118779119D01*
X106487575Y-118770881D01*
X106468756Y-118483751D01*
X106467683Y-118475600D01*
X106411546Y-118193383D01*
X106409412Y-118185420D01*
X106316922Y-117912953D01*
X106313772Y-117905349D01*
X106186508Y-117647282D01*
X106182387Y-117640145D01*
X106072041Y-117475000D01*
X118847496Y-117475000D01*
X118867458Y-117664928D01*
X118926473Y-117846556D01*
X118929776Y-117852278D01*
X118929777Y-117852279D01*
X118959590Y-117903916D01*
X119021960Y-118011944D01*
X119026378Y-118016851D01*
X119026379Y-118016852D01*
X119107195Y-118106607D01*
X119149747Y-118153866D01*
X119304248Y-118266118D01*
X119310276Y-118268802D01*
X119310278Y-118268803D01*
X119333096Y-118278962D01*
X119478712Y-118343794D01*
X119572112Y-118363647D01*
X119659056Y-118382128D01*
X119659061Y-118382128D01*
X119665513Y-118383500D01*
X119856487Y-118383500D01*
X119862939Y-118382128D01*
X119862944Y-118382128D01*
X119949888Y-118363647D01*
X120043288Y-118343794D01*
X120188904Y-118278962D01*
X120211722Y-118268803D01*
X120211724Y-118268802D01*
X120217752Y-118266118D01*
X120288391Y-118214796D01*
X120350671Y-118169546D01*
X120372253Y-118153866D01*
X120376668Y-118148963D01*
X120381580Y-118144540D01*
X120382705Y-118145789D01*
X120436014Y-118112949D01*
X120469200Y-118108500D01*
X132414711Y-118108500D01*
X132482832Y-118128502D01*
X132529325Y-118182158D01*
X132539429Y-118252432D01*
X132509935Y-118317012D01*
X132503806Y-118323595D01*
X129120556Y-121706844D01*
X129058244Y-121740870D01*
X129031461Y-121743749D01*
X128460200Y-121743749D01*
X128392079Y-121723747D01*
X128372853Y-121707406D01*
X128372580Y-121707709D01*
X128367668Y-121703286D01*
X128363253Y-121698383D01*
X128208752Y-121586131D01*
X128202724Y-121583447D01*
X128202722Y-121583446D01*
X128040319Y-121511140D01*
X128040318Y-121511140D01*
X128034288Y-121508455D01*
X127940887Y-121488602D01*
X127853944Y-121470121D01*
X127853939Y-121470121D01*
X127847487Y-121468749D01*
X127656513Y-121468749D01*
X127650061Y-121470121D01*
X127650056Y-121470121D01*
X127563113Y-121488602D01*
X127469712Y-121508455D01*
X127463682Y-121511140D01*
X127463681Y-121511140D01*
X127301278Y-121583446D01*
X127301276Y-121583447D01*
X127295248Y-121586131D01*
X127140747Y-121698383D01*
X127136326Y-121703293D01*
X127136325Y-121703294D01*
X127102492Y-121740870D01*
X127012960Y-121840305D01*
X126917473Y-122005693D01*
X126858458Y-122187321D01*
X126857768Y-122193882D01*
X126857768Y-122193884D01*
X126853267Y-122236711D01*
X126838496Y-122377249D01*
X126839186Y-122383814D01*
X126847992Y-122467594D01*
X126858458Y-122567177D01*
X126917473Y-122748805D01*
X127012960Y-122914193D01*
X127017378Y-122919100D01*
X127017379Y-122919101D01*
X127099452Y-123010252D01*
X127140747Y-123056115D01*
X127295248Y-123168367D01*
X127301276Y-123171051D01*
X127301278Y-123171052D01*
X127426399Y-123226759D01*
X127469712Y-123246043D01*
X127551803Y-123263492D01*
X127650056Y-123284377D01*
X127650061Y-123284377D01*
X127656513Y-123285749D01*
X127847487Y-123285749D01*
X127853939Y-123284377D01*
X127853944Y-123284377D01*
X127952197Y-123263492D01*
X128034288Y-123246043D01*
X128077601Y-123226759D01*
X128202722Y-123171052D01*
X128202724Y-123171051D01*
X128208752Y-123168367D01*
X128252988Y-123136228D01*
X128349354Y-123066213D01*
X128363253Y-123056115D01*
X128367668Y-123051212D01*
X128372580Y-123046789D01*
X128373705Y-123048038D01*
X128427014Y-123015198D01*
X128460200Y-123010749D01*
X129267289Y-123010749D01*
X129278472Y-123011276D01*
X129285965Y-123012951D01*
X129293891Y-123012702D01*
X129293892Y-123012702D01*
X129354042Y-123010811D01*
X129358001Y-123010749D01*
X129385912Y-123010749D01*
X129389847Y-123010252D01*
X129389912Y-123010244D01*
X129401749Y-123009311D01*
X129434007Y-123008297D01*
X129438026Y-123008171D01*
X129445945Y-123007922D01*
X129465399Y-123002270D01*
X129484756Y-122998262D01*
X129496986Y-122996717D01*
X129496987Y-122996717D01*
X129504853Y-122995723D01*
X129512224Y-122992804D01*
X129512226Y-122992804D01*
X129545968Y-122979445D01*
X129557198Y-122975600D01*
X129592039Y-122965478D01*
X129592040Y-122965478D01*
X129599649Y-122963267D01*
X129606468Y-122959234D01*
X129606473Y-122959232D01*
X129617084Y-122952956D01*
X129634832Y-122944261D01*
X129653673Y-122936801D01*
X129689443Y-122910813D01*
X129699363Y-122904297D01*
X129730591Y-122885829D01*
X129730594Y-122885827D01*
X129737418Y-122881791D01*
X129751739Y-122867470D01*
X129766773Y-122854629D01*
X129776750Y-122847380D01*
X129783163Y-122842721D01*
X129811354Y-122808644D01*
X129819344Y-122799865D01*
X134340247Y-118278962D01*
X134348537Y-118271418D01*
X134355018Y-118267305D01*
X134401659Y-118217637D01*
X134404413Y-118214796D01*
X134424135Y-118195074D01*
X134426612Y-118191881D01*
X134434317Y-118182860D01*
X134459159Y-118156405D01*
X134464586Y-118150626D01*
X134468407Y-118143676D01*
X134474346Y-118132873D01*
X134485202Y-118116346D01*
X134492757Y-118106607D01*
X134492758Y-118106605D01*
X134497614Y-118100345D01*
X134506864Y-118078970D01*
X134552274Y-118024397D01*
X134619982Y-118003037D01*
X134688488Y-118021674D01*
X134736045Y-118074389D01*
X134748500Y-118129012D01*
X134748500Y-126170476D01*
X134728498Y-126238597D01*
X134716142Y-126254779D01*
X134642960Y-126336056D01*
X134547473Y-126501444D01*
X134488458Y-126683072D01*
X134468496Y-126873000D01*
X134469186Y-126879565D01*
X134483685Y-127017512D01*
X134488458Y-127062928D01*
X134547473Y-127244556D01*
X134642960Y-127409944D01*
X134647378Y-127414851D01*
X134647379Y-127414852D01*
X134712859Y-127487575D01*
X134770747Y-127551866D01*
X134925248Y-127664118D01*
X134931276Y-127666802D01*
X134931278Y-127666803D01*
X135093681Y-127739109D01*
X135099712Y-127741794D01*
X135188350Y-127760634D01*
X135248843Y-127773493D01*
X135311741Y-127807645D01*
X148952878Y-141448782D01*
X148986904Y-141511094D01*
X148989092Y-141524703D01*
X149006458Y-141689928D01*
X149065473Y-141871556D01*
X149160960Y-142036944D01*
X149288747Y-142178866D01*
X149443248Y-142291118D01*
X149449276Y-142293802D01*
X149449278Y-142293803D01*
X149611681Y-142366109D01*
X149617712Y-142368794D01*
X149711113Y-142388647D01*
X149798056Y-142407128D01*
X149798061Y-142407128D01*
X149804513Y-142408500D01*
X149995487Y-142408500D01*
X150001939Y-142407128D01*
X150001944Y-142407128D01*
X150088887Y-142388647D01*
X150182288Y-142368794D01*
X150188319Y-142366109D01*
X150350722Y-142293803D01*
X150350724Y-142293802D01*
X150356752Y-142291118D01*
X150511253Y-142178866D01*
X150639040Y-142036944D01*
X150734527Y-141871556D01*
X150793542Y-141689928D01*
X150813504Y-141500000D01*
X150793542Y-141310072D01*
X150734527Y-141128444D01*
X150639040Y-140963056D01*
X150511253Y-140821134D01*
X150356752Y-140708882D01*
X150350724Y-140706198D01*
X150350722Y-140706197D01*
X150188319Y-140633891D01*
X150188318Y-140633891D01*
X150182288Y-140631206D01*
X150088887Y-140611353D01*
X150001944Y-140592872D01*
X150001939Y-140592872D01*
X149995487Y-140591500D01*
X149939594Y-140591500D01*
X149871473Y-140571498D01*
X149850499Y-140554595D01*
X136325961Y-127030056D01*
X136291935Y-126967744D01*
X136289746Y-126927792D01*
X136294814Y-126879567D01*
X136294814Y-126879565D01*
X136295504Y-126873000D01*
X136275542Y-126683072D01*
X136216527Y-126501444D01*
X136121040Y-126336056D01*
X136047863Y-126254785D01*
X136017147Y-126190779D01*
X136015500Y-126170476D01*
X136015500Y-111827524D01*
X136035502Y-111759403D01*
X136047858Y-111743221D01*
X136121040Y-111661944D01*
X136216527Y-111496556D01*
X136275542Y-111314928D01*
X136295504Y-111125000D01*
X136275542Y-110935072D01*
X136216527Y-110753444D01*
X136121040Y-110588056D01*
X135993253Y-110446134D01*
X135852907Y-110344166D01*
X135844094Y-110337763D01*
X135844093Y-110337762D01*
X135838752Y-110333882D01*
X135832724Y-110331198D01*
X135832722Y-110331197D01*
X135670319Y-110258891D01*
X135670318Y-110258891D01*
X135664288Y-110256206D01*
X135570888Y-110236353D01*
X135483944Y-110217872D01*
X135483939Y-110217872D01*
X135477487Y-110216500D01*
X135286513Y-110216500D01*
X135280061Y-110217872D01*
X135280056Y-110217872D01*
X135193112Y-110236353D01*
X135099712Y-110256206D01*
X135093682Y-110258891D01*
X135093681Y-110258891D01*
X134931278Y-110331197D01*
X134931276Y-110331198D01*
X134925248Y-110333882D01*
X134919907Y-110337762D01*
X134919906Y-110337763D01*
X134911093Y-110344166D01*
X134770747Y-110446134D01*
X134642960Y-110588056D01*
X134547473Y-110753444D01*
X134488458Y-110935072D01*
X134468496Y-111125000D01*
X134488458Y-111314928D01*
X134547473Y-111496556D01*
X134642960Y-111661944D01*
X134716137Y-111743215D01*
X134746853Y-111807221D01*
X134748500Y-111827524D01*
X134748500Y-116698990D01*
X134728498Y-116767111D01*
X134674842Y-116813604D01*
X134604568Y-116823708D01*
X134539988Y-116794214D01*
X134512086Y-116759692D01*
X134510470Y-116756753D01*
X134507552Y-116749383D01*
X134481563Y-116713612D01*
X134475047Y-116703692D01*
X134464719Y-116686228D01*
X134452542Y-116665638D01*
X134438221Y-116651317D01*
X134425380Y-116636283D01*
X134418131Y-116626306D01*
X134413472Y-116619893D01*
X134379395Y-116591702D01*
X134370616Y-116583712D01*
X131948652Y-114161747D01*
X131941112Y-114153461D01*
X131937000Y-114146982D01*
X131887348Y-114100356D01*
X131884507Y-114097602D01*
X131864770Y-114077865D01*
X131861573Y-114075385D01*
X131852551Y-114067680D01*
X131826100Y-114042841D01*
X131820321Y-114037414D01*
X131813375Y-114033595D01*
X131813372Y-114033593D01*
X131802566Y-114027652D01*
X131786047Y-114016801D01*
X131785583Y-114016441D01*
X131770041Y-114004386D01*
X131762772Y-114001241D01*
X131762768Y-114001238D01*
X131729463Y-113986826D01*
X131718813Y-113981609D01*
X131680060Y-113960305D01*
X131660437Y-113955267D01*
X131641734Y-113948863D01*
X131630420Y-113943967D01*
X131630419Y-113943967D01*
X131623145Y-113940819D01*
X131615322Y-113939580D01*
X131615312Y-113939577D01*
X131579476Y-113933901D01*
X131567856Y-113931495D01*
X131532711Y-113922472D01*
X131532710Y-113922472D01*
X131525030Y-113920500D01*
X131504776Y-113920500D01*
X131485065Y-113918949D01*
X131472886Y-113917020D01*
X131465057Y-113915780D01*
X131457165Y-113916526D01*
X131421039Y-113919941D01*
X131409181Y-113920500D01*
X128511500Y-113920500D01*
X128443379Y-113900498D01*
X128396886Y-113846842D01*
X128385500Y-113794500D01*
X128385500Y-106934524D01*
X128405502Y-106866403D01*
X128417858Y-106850221D01*
X128491040Y-106768944D01*
X128586527Y-106603556D01*
X128645542Y-106421928D01*
X128660227Y-106282213D01*
X128664814Y-106238565D01*
X128665504Y-106232000D01*
X128645542Y-106042072D01*
X128586527Y-105860444D01*
X128491040Y-105695056D01*
X128363253Y-105553134D01*
X128208752Y-105440882D01*
X128202724Y-105438198D01*
X128202722Y-105438197D01*
X128040319Y-105365891D01*
X128040318Y-105365891D01*
X128034288Y-105363206D01*
X127940888Y-105343353D01*
X127853944Y-105324872D01*
X127853939Y-105324872D01*
X127847487Y-105323500D01*
X127656513Y-105323500D01*
X127650061Y-105324872D01*
X127650056Y-105324872D01*
X127563112Y-105343353D01*
X127469712Y-105363206D01*
X127463682Y-105365891D01*
X127463681Y-105365891D01*
X127301278Y-105438197D01*
X127301276Y-105438198D01*
X127295248Y-105440882D01*
X127140747Y-105553134D01*
X127012960Y-105695056D01*
X126917473Y-105860444D01*
X126858458Y-106042072D01*
X126838496Y-106232000D01*
X126839186Y-106238565D01*
X126843774Y-106282213D01*
X126858458Y-106421928D01*
X126917473Y-106603556D01*
X127012960Y-106768944D01*
X127086137Y-106850215D01*
X127116853Y-106914221D01*
X127118500Y-106934524D01*
X127118500Y-114465233D01*
X127117973Y-114476416D01*
X127116298Y-114483909D01*
X127116547Y-114491835D01*
X127116547Y-114491836D01*
X127118438Y-114551986D01*
X127118500Y-114555945D01*
X127118500Y-114583856D01*
X127118997Y-114587790D01*
X127118997Y-114587791D01*
X127119005Y-114587856D01*
X127119938Y-114599693D01*
X127121327Y-114643889D01*
X127124777Y-114655763D01*
X127126978Y-114663339D01*
X127130987Y-114682700D01*
X127133526Y-114702797D01*
X127136445Y-114710168D01*
X127136445Y-114710170D01*
X127149804Y-114743912D01*
X127153649Y-114755142D01*
X127157688Y-114769045D01*
X127165982Y-114797593D01*
X127170015Y-114804412D01*
X127170017Y-114804417D01*
X127176293Y-114815028D01*
X127184988Y-114832776D01*
X127192448Y-114851617D01*
X127197110Y-114858033D01*
X127197110Y-114858034D01*
X127218436Y-114887387D01*
X127224952Y-114897307D01*
X127247458Y-114935362D01*
X127258344Y-114946248D01*
X127265886Y-114954536D01*
X127270000Y-114961018D01*
X127275380Y-114966070D01*
X127278893Y-114970599D01*
X127286528Y-114981107D01*
X127292634Y-114986158D01*
X127320605Y-115009298D01*
X127329384Y-115017288D01*
X127342230Y-115030134D01*
X127345425Y-115032612D01*
X127354447Y-115040318D01*
X127386679Y-115070586D01*
X127393628Y-115074406D01*
X127404432Y-115080346D01*
X127420956Y-115091199D01*
X127436959Y-115103613D01*
X127477543Y-115121176D01*
X127488173Y-115126383D01*
X127526940Y-115147695D01*
X127534617Y-115149666D01*
X127534622Y-115149668D01*
X127546558Y-115152732D01*
X127565266Y-115159137D01*
X127583855Y-115167181D01*
X127591683Y-115168421D01*
X127591690Y-115168423D01*
X127627524Y-115174099D01*
X127639144Y-115176505D01*
X127674289Y-115185528D01*
X127681970Y-115187500D01*
X127702224Y-115187500D01*
X127721934Y-115189051D01*
X127741943Y-115192220D01*
X127749835Y-115191474D01*
X127785961Y-115188059D01*
X127797819Y-115187500D01*
X131130406Y-115187500D01*
X131198527Y-115207502D01*
X131219501Y-115224405D01*
X132612793Y-116617697D01*
X132646819Y-116680009D01*
X132641754Y-116750824D01*
X132611240Y-116795681D01*
X132611745Y-116796136D01*
X132608434Y-116799813D01*
X132608426Y-116799818D01*
X132608414Y-116799836D01*
X132607328Y-116801042D01*
X132602426Y-116805456D01*
X132601301Y-116804207D01*
X132547986Y-116837051D01*
X132514800Y-116841500D01*
X120469200Y-116841500D01*
X120401079Y-116821498D01*
X120381853Y-116805157D01*
X120381580Y-116805460D01*
X120376668Y-116801037D01*
X120372253Y-116796134D01*
X120258672Y-116713612D01*
X120223094Y-116687763D01*
X120223093Y-116687762D01*
X120217752Y-116683882D01*
X120211724Y-116681198D01*
X120211722Y-116681197D01*
X120049319Y-116608891D01*
X120049318Y-116608891D01*
X120043288Y-116606206D01*
X119937463Y-116583712D01*
X119862944Y-116567872D01*
X119862939Y-116567872D01*
X119856487Y-116566500D01*
X119665513Y-116566500D01*
X119659061Y-116567872D01*
X119659056Y-116567872D01*
X119584537Y-116583712D01*
X119478712Y-116606206D01*
X119472682Y-116608891D01*
X119472681Y-116608891D01*
X119310278Y-116681197D01*
X119310276Y-116681198D01*
X119304248Y-116683882D01*
X119149747Y-116796134D01*
X119021960Y-116938056D01*
X118926473Y-117103444D01*
X118867458Y-117285072D01*
X118866768Y-117291633D01*
X118866768Y-117291635D01*
X118855971Y-117394361D01*
X118847496Y-117475000D01*
X106072041Y-117475000D01*
X106022530Y-117400901D01*
X106017512Y-117394361D01*
X106004853Y-117379926D01*
X105991614Y-117371528D01*
X105981849Y-117377362D01*
X104597020Y-118762190D01*
X104589408Y-118776131D01*
X103859357Y-118776131D01*
X103860592Y-118773869D01*
X103860461Y-118772034D01*
X103856210Y-118765420D01*
X102469905Y-117379116D01*
X102456144Y-117371601D01*
X102446784Y-117378059D01*
X102432488Y-117394361D01*
X102427470Y-117400901D01*
X102267613Y-117640145D01*
X102263492Y-117647282D01*
X102136228Y-117905349D01*
X102133078Y-117912953D01*
X102040588Y-118185420D01*
X102038454Y-118193383D01*
X101982317Y-118475600D01*
X101981244Y-118483751D01*
X101962425Y-118770881D01*
X101962425Y-118779119D01*
X100037575Y-118779119D01*
X100037575Y-118770881D01*
X100018756Y-118483751D01*
X100017683Y-118475600D01*
X99961546Y-118193383D01*
X99959412Y-118185420D01*
X99866922Y-117912953D01*
X99863772Y-117905349D01*
X99736508Y-117647282D01*
X99732387Y-117640145D01*
X99572530Y-117400901D01*
X99567512Y-117394361D01*
X99554853Y-117379926D01*
X99541614Y-117371528D01*
X99531849Y-117377362D01*
X98147020Y-118762190D01*
X98139408Y-118776131D01*
X97409357Y-118776131D01*
X97410592Y-118773869D01*
X97410461Y-118772034D01*
X97406210Y-118765420D01*
X96019905Y-117379116D01*
X96006144Y-117371601D01*
X95996784Y-117378059D01*
X95982488Y-117394361D01*
X95977470Y-117400901D01*
X95817613Y-117640145D01*
X95813492Y-117647282D01*
X95747506Y-117781089D01*
X95699438Y-117833338D01*
X95630752Y-117851305D01*
X95563256Y-117829286D01*
X95518380Y-117774271D01*
X95508500Y-117725361D01*
X95508500Y-117008386D01*
X96371528Y-117008386D01*
X96377362Y-117018151D01*
X97762190Y-118402980D01*
X97776131Y-118410592D01*
X97777966Y-118410461D01*
X97784580Y-118406210D01*
X99170884Y-117019905D01*
X99177175Y-117008386D01*
X102821528Y-117008386D01*
X102827362Y-117018151D01*
X104212190Y-118402980D01*
X104226131Y-118410592D01*
X104227966Y-118410461D01*
X104234580Y-118406210D01*
X105620884Y-117019905D01*
X105628399Y-117006144D01*
X105621941Y-116996784D01*
X105605639Y-116982488D01*
X105599099Y-116977470D01*
X105359856Y-116817613D01*
X105352719Y-116813492D01*
X105094651Y-116686228D01*
X105087047Y-116683078D01*
X104814580Y-116590588D01*
X104806617Y-116588454D01*
X104524400Y-116532317D01*
X104516249Y-116531244D01*
X104229119Y-116512425D01*
X104220881Y-116512425D01*
X103933751Y-116531244D01*
X103925600Y-116532317D01*
X103643383Y-116588454D01*
X103635420Y-116590588D01*
X103362953Y-116683078D01*
X103355349Y-116686228D01*
X103097282Y-116813492D01*
X103090145Y-116817613D01*
X102850901Y-116977470D01*
X102844361Y-116982488D01*
X102829926Y-116995147D01*
X102821528Y-117008386D01*
X99177175Y-117008386D01*
X99178399Y-117006144D01*
X99171941Y-116996784D01*
X99155639Y-116982488D01*
X99149099Y-116977470D01*
X98909856Y-116817613D01*
X98902719Y-116813492D01*
X98644651Y-116686228D01*
X98637047Y-116683078D01*
X98364580Y-116590588D01*
X98356617Y-116588454D01*
X98074400Y-116532317D01*
X98066249Y-116531244D01*
X97779119Y-116512425D01*
X97770881Y-116512425D01*
X97483751Y-116531244D01*
X97475600Y-116532317D01*
X97193383Y-116588454D01*
X97185420Y-116590588D01*
X96912953Y-116683078D01*
X96905349Y-116686228D01*
X96647282Y-116813492D01*
X96640145Y-116817613D01*
X96400901Y-116977470D01*
X96394361Y-116982488D01*
X96379926Y-116995147D01*
X96371528Y-117008386D01*
X95508500Y-117008386D01*
X95508500Y-114173000D01*
X113767496Y-114173000D01*
X113787458Y-114362928D01*
X113846473Y-114544556D01*
X113941960Y-114709944D01*
X113946378Y-114714851D01*
X113946379Y-114714852D01*
X113990753Y-114764134D01*
X114069747Y-114851866D01*
X114125251Y-114892192D01*
X114211737Y-114955028D01*
X114224248Y-114964118D01*
X114230276Y-114966802D01*
X114230278Y-114966803D01*
X114392681Y-115039109D01*
X114398712Y-115041794D01*
X114492113Y-115061647D01*
X114579056Y-115080128D01*
X114579061Y-115080128D01*
X114585513Y-115081500D01*
X114776487Y-115081500D01*
X114782939Y-115080128D01*
X114782944Y-115080128D01*
X114869887Y-115061647D01*
X114963288Y-115041794D01*
X114969319Y-115039109D01*
X115131722Y-114966803D01*
X115131724Y-114966802D01*
X115137752Y-114964118D01*
X115150264Y-114955028D01*
X115236749Y-114892192D01*
X115292253Y-114851866D01*
X115371247Y-114764134D01*
X115415621Y-114714852D01*
X115415622Y-114714851D01*
X115420040Y-114709944D01*
X115515527Y-114544556D01*
X115574542Y-114362928D01*
X115594504Y-114173000D01*
X115586728Y-114099016D01*
X115575232Y-113989635D01*
X115575232Y-113989633D01*
X115574542Y-113983072D01*
X115515527Y-113801444D01*
X115420040Y-113636056D01*
X115346863Y-113554785D01*
X115316147Y-113490779D01*
X115314500Y-113470476D01*
X115314500Y-109474000D01*
X116664996Y-109474000D01*
X116684958Y-109663928D01*
X116743973Y-109845556D01*
X116839460Y-110010944D01*
X116967247Y-110152866D01*
X117054831Y-110216500D01*
X117109482Y-110256206D01*
X117121748Y-110265118D01*
X117127776Y-110267802D01*
X117127778Y-110267803D01*
X117276195Y-110333882D01*
X117296212Y-110342794D01*
X117389613Y-110362647D01*
X117476556Y-110381128D01*
X117476561Y-110381128D01*
X117483013Y-110382500D01*
X117673987Y-110382500D01*
X117680439Y-110381128D01*
X117680444Y-110381128D01*
X117767387Y-110362647D01*
X117860788Y-110342794D01*
X117880805Y-110333882D01*
X118029222Y-110267803D01*
X118029224Y-110267802D01*
X118035252Y-110265118D01*
X118047519Y-110256206D01*
X118102169Y-110216500D01*
X118189753Y-110152866D01*
X118317540Y-110010944D01*
X118413027Y-109845556D01*
X118472042Y-109663928D01*
X118492004Y-109474000D01*
X118472042Y-109284072D01*
X118413027Y-109102444D01*
X118317540Y-108937056D01*
X118244363Y-108855785D01*
X118213647Y-108791779D01*
X118212000Y-108771476D01*
X118212000Y-106366524D01*
X118232002Y-106298403D01*
X118244358Y-106282221D01*
X118317540Y-106200944D01*
X118413027Y-106035556D01*
X118472042Y-105853928D01*
X118492004Y-105664000D01*
X118472042Y-105474072D01*
X118413027Y-105292444D01*
X118355881Y-105193464D01*
X118339000Y-105130465D01*
X118339000Y-102810524D01*
X118359002Y-102742403D01*
X118371358Y-102726221D01*
X118444540Y-102644944D01*
X118540027Y-102479556D01*
X118599042Y-102297928D01*
X118619004Y-102108000D01*
X118599042Y-101918072D01*
X118540027Y-101736444D01*
X118482881Y-101637464D01*
X118466000Y-101574465D01*
X118466000Y-100457000D01*
X133452496Y-100457000D01*
X133472458Y-100646928D01*
X133531473Y-100828556D01*
X133626960Y-100993944D01*
X133754747Y-101135866D01*
X133909248Y-101248118D01*
X133915276Y-101250802D01*
X133915278Y-101250803D01*
X133995952Y-101286721D01*
X134083712Y-101325794D01*
X134177112Y-101345647D01*
X134264056Y-101364128D01*
X134264061Y-101364128D01*
X134270513Y-101365500D01*
X134461487Y-101365500D01*
X134467939Y-101364128D01*
X134467944Y-101364128D01*
X134554888Y-101345647D01*
X134648288Y-101325794D01*
X134654315Y-101323111D01*
X134654323Y-101323108D01*
X134794474Y-101260709D01*
X134864841Y-101251275D01*
X134929138Y-101281382D01*
X134934817Y-101286721D01*
X149002001Y-115353905D01*
X149036027Y-115416217D01*
X149030962Y-115487032D01*
X149002001Y-115532095D01*
X148004500Y-116529595D01*
X147942188Y-116563621D01*
X147915405Y-116566500D01*
X147732513Y-116566500D01*
X147726061Y-116567872D01*
X147726056Y-116567872D01*
X147651537Y-116583712D01*
X147545712Y-116606206D01*
X147539682Y-116608891D01*
X147539681Y-116608891D01*
X147377278Y-116681197D01*
X147377276Y-116681198D01*
X147371248Y-116683882D01*
X147216747Y-116796134D01*
X147088960Y-116938056D01*
X146993473Y-117103444D01*
X146934458Y-117285072D01*
X146933768Y-117291633D01*
X146933768Y-117291635D01*
X146922971Y-117394361D01*
X146914496Y-117475000D01*
X146934458Y-117664928D01*
X146993473Y-117846556D01*
X146996776Y-117852278D01*
X146996777Y-117852279D01*
X147026590Y-117903916D01*
X147088960Y-118011944D01*
X147093378Y-118016851D01*
X147093379Y-118016852D01*
X147174195Y-118106607D01*
X147216747Y-118153866D01*
X147371248Y-118266118D01*
X147377276Y-118268802D01*
X147377278Y-118268803D01*
X147400096Y-118278962D01*
X147545712Y-118343794D01*
X147639112Y-118363647D01*
X147726056Y-118382128D01*
X147726061Y-118382128D01*
X147732513Y-118383500D01*
X147923487Y-118383500D01*
X147929939Y-118382128D01*
X147929944Y-118382128D01*
X148016888Y-118363647D01*
X148110288Y-118343794D01*
X148255904Y-118278962D01*
X148278722Y-118268803D01*
X148278724Y-118268802D01*
X148284752Y-118266118D01*
X148439253Y-118153866D01*
X148481805Y-118106607D01*
X148562621Y-118016852D01*
X148562622Y-118016851D01*
X148567040Y-118011944D01*
X148629410Y-117903916D01*
X148659223Y-117852279D01*
X148659224Y-117852278D01*
X148662527Y-117846556D01*
X148721542Y-117664928D01*
X148723991Y-117641625D01*
X148751003Y-117575968D01*
X148760206Y-117565698D01*
X149937500Y-116388405D01*
X149999812Y-116354379D01*
X150026595Y-116351500D01*
X150082487Y-116351500D01*
X150088939Y-116350128D01*
X150088944Y-116350128D01*
X150175887Y-116331647D01*
X150269288Y-116311794D01*
X150275319Y-116309109D01*
X150437722Y-116236803D01*
X150437724Y-116236802D01*
X150443752Y-116234118D01*
X150598253Y-116121866D01*
X150726040Y-115979944D01*
X150821527Y-115814556D01*
X150880542Y-115632928D01*
X150900504Y-115443000D01*
X150880542Y-115253072D01*
X150821527Y-115071444D01*
X150726040Y-114906056D01*
X150718163Y-114897307D01*
X150602675Y-114769045D01*
X150602674Y-114769044D01*
X150598253Y-114764134D01*
X150443752Y-114651882D01*
X150437724Y-114649198D01*
X150437722Y-114649197D01*
X150275319Y-114576891D01*
X150275318Y-114576891D01*
X150269288Y-114574206D01*
X150156721Y-114550279D01*
X150088944Y-114535872D01*
X150088939Y-114535872D01*
X150082487Y-114534500D01*
X150026595Y-114534500D01*
X149958474Y-114514498D01*
X149937500Y-114497595D01*
X135504652Y-100064747D01*
X135497112Y-100056461D01*
X135493000Y-100049982D01*
X135443348Y-100003356D01*
X135440507Y-100000602D01*
X135420770Y-99980865D01*
X135417573Y-99978385D01*
X135408551Y-99970680D01*
X135382100Y-99945841D01*
X135376321Y-99940414D01*
X135369375Y-99936595D01*
X135369372Y-99936593D01*
X135358566Y-99930652D01*
X135342047Y-99919801D01*
X135335737Y-99914907D01*
X135326041Y-99907386D01*
X135318772Y-99904241D01*
X135318768Y-99904238D01*
X135285463Y-99889826D01*
X135274813Y-99884609D01*
X135236060Y-99863305D01*
X135216437Y-99858267D01*
X135197734Y-99851863D01*
X135186420Y-99846967D01*
X135186419Y-99846967D01*
X135179145Y-99843819D01*
X135171322Y-99842580D01*
X135171312Y-99842577D01*
X135135476Y-99836901D01*
X135123856Y-99834495D01*
X135088711Y-99825472D01*
X135088710Y-99825472D01*
X135081030Y-99823500D01*
X135073101Y-99823500D01*
X135065240Y-99822507D01*
X135065439Y-99820928D01*
X135006079Y-99803498D01*
X134986854Y-99787157D01*
X134986580Y-99787461D01*
X134981672Y-99783041D01*
X134977253Y-99778134D01*
X134961080Y-99766383D01*
X134828094Y-99669763D01*
X134828093Y-99669762D01*
X134822752Y-99665882D01*
X134816724Y-99663198D01*
X134816722Y-99663197D01*
X134654319Y-99590891D01*
X134654318Y-99590891D01*
X134648288Y-99588206D01*
X134530565Y-99563183D01*
X134467944Y-99549872D01*
X134467939Y-99549872D01*
X134461487Y-99548500D01*
X134270513Y-99548500D01*
X134264061Y-99549872D01*
X134264056Y-99549872D01*
X134201435Y-99563183D01*
X134083712Y-99588206D01*
X134077682Y-99590891D01*
X134077681Y-99590891D01*
X133915278Y-99663197D01*
X133915276Y-99663198D01*
X133909248Y-99665882D01*
X133903907Y-99669762D01*
X133903906Y-99669763D01*
X133867091Y-99696511D01*
X133754747Y-99778134D01*
X133750326Y-99783044D01*
X133750325Y-99783045D01*
X133636465Y-99909500D01*
X133626960Y-99920056D01*
X133568686Y-100020990D01*
X133544939Y-100062121D01*
X133531473Y-100085444D01*
X133472458Y-100267072D01*
X133452496Y-100457000D01*
X118466000Y-100457000D01*
X118466000Y-99311500D01*
X118486002Y-99243379D01*
X118539658Y-99196886D01*
X118592000Y-99185500D01*
X121850100Y-99185500D01*
X121918221Y-99205502D01*
X121939196Y-99222405D01*
X122295671Y-99578881D01*
X122640048Y-99923258D01*
X122647582Y-99931537D01*
X122651695Y-99938018D01*
X122697323Y-99980865D01*
X122701346Y-99984643D01*
X122704188Y-99987398D01*
X122723925Y-100007135D01*
X122727122Y-100009615D01*
X122736142Y-100017318D01*
X122768374Y-100047586D01*
X122775320Y-100051405D01*
X122775323Y-100051407D01*
X122786129Y-100057348D01*
X122802648Y-100068199D01*
X122818654Y-100080614D01*
X122825923Y-100083759D01*
X122825927Y-100083762D01*
X122859232Y-100098174D01*
X122869882Y-100103391D01*
X122908635Y-100124695D01*
X122916310Y-100126666D01*
X122916311Y-100126666D01*
X122928257Y-100129733D01*
X122946962Y-100136137D01*
X122965550Y-100144181D01*
X122973373Y-100145420D01*
X122973383Y-100145423D01*
X123009219Y-100151099D01*
X123020839Y-100153505D01*
X123055984Y-100162528D01*
X123063665Y-100164500D01*
X123083919Y-100164500D01*
X123103629Y-100166051D01*
X123123638Y-100169220D01*
X123131530Y-100168474D01*
X123142958Y-100167394D01*
X123167657Y-100165059D01*
X123179514Y-100164500D01*
X127399207Y-100164500D01*
X127422816Y-100166732D01*
X127423119Y-100166790D01*
X127423123Y-100166790D01*
X127430906Y-100168275D01*
X127486951Y-100164749D01*
X127494862Y-100164500D01*
X127510856Y-100164500D01*
X127526730Y-100162494D01*
X127534590Y-100161752D01*
X127562049Y-100160024D01*
X127582737Y-100158723D01*
X127582738Y-100158723D01*
X127590650Y-100158225D01*
X127598191Y-100155775D01*
X127598487Y-100155679D01*
X127621631Y-100150506D01*
X127621935Y-100150468D01*
X127621940Y-100150467D01*
X127629797Y-100149474D01*
X127637162Y-100146558D01*
X127637166Y-100146557D01*
X127682011Y-100128801D01*
X127689430Y-100126129D01*
X127742875Y-100108764D01*
X127749572Y-100104514D01*
X127749831Y-100104350D01*
X127770958Y-100093585D01*
X127771246Y-100093471D01*
X127771251Y-100093468D01*
X127778617Y-100090552D01*
X127785025Y-100085896D01*
X127785031Y-100085893D01*
X127824052Y-100057542D01*
X127830589Y-100053099D01*
X127878018Y-100023000D01*
X127883659Y-100016993D01*
X127901446Y-100001312D01*
X127901691Y-100001134D01*
X127901693Y-100001132D01*
X127908107Y-99996472D01*
X127918699Y-99983669D01*
X127943903Y-99953204D01*
X127949134Y-99947270D01*
X127982158Y-99912102D01*
X127982160Y-99912099D01*
X127987586Y-99906321D01*
X127991558Y-99899097D01*
X128004881Y-99879494D01*
X128005080Y-99879254D01*
X128005084Y-99879247D01*
X128010133Y-99873144D01*
X128032764Y-99825051D01*
X128034047Y-99822324D01*
X128037629Y-99815292D01*
X128064695Y-99766060D01*
X128066665Y-99758385D01*
X128066668Y-99758379D01*
X128066744Y-99758081D01*
X128074776Y-99735772D01*
X128074906Y-99735497D01*
X128074909Y-99735489D01*
X128078283Y-99728318D01*
X128088806Y-99673151D01*
X128090532Y-99665429D01*
X128091106Y-99663197D01*
X128104500Y-99611030D01*
X128104500Y-99602793D01*
X128106732Y-99579184D01*
X128106790Y-99578881D01*
X128106790Y-99578877D01*
X128108275Y-99571094D01*
X128104749Y-99515049D01*
X128104500Y-99507138D01*
X128104500Y-95210500D01*
X128124502Y-95142379D01*
X128178158Y-95095886D01*
X128230500Y-95084500D01*
X139575500Y-95084500D01*
X139643621Y-95104502D01*
X139690114Y-95158158D01*
X139701500Y-95210500D01*
X139701500Y-96332405D01*
X139681498Y-96400526D01*
X139664595Y-96421501D01*
X139368460Y-96717635D01*
X139077242Y-97008853D01*
X139068963Y-97016387D01*
X139062482Y-97020500D01*
X139015857Y-97070151D01*
X139013102Y-97072993D01*
X138993365Y-97092730D01*
X138990885Y-97095927D01*
X138983182Y-97104947D01*
X138952914Y-97137179D01*
X138949095Y-97144125D01*
X138949093Y-97144128D01*
X138943152Y-97154934D01*
X138932301Y-97171453D01*
X138919886Y-97187459D01*
X138916741Y-97194728D01*
X138916738Y-97194732D01*
X138902326Y-97228037D01*
X138897109Y-97238687D01*
X138875805Y-97277440D01*
X138873834Y-97285115D01*
X138873834Y-97285116D01*
X138870767Y-97297062D01*
X138864363Y-97315766D01*
X138856319Y-97334355D01*
X138855080Y-97342178D01*
X138855077Y-97342188D01*
X138849401Y-97378024D01*
X138846995Y-97389644D01*
X138836000Y-97432470D01*
X138836000Y-97452724D01*
X138834449Y-97472434D01*
X138831280Y-97492443D01*
X138832026Y-97500335D01*
X138835441Y-97536461D01*
X138836000Y-97548319D01*
X138836000Y-99102905D01*
X138815998Y-99171026D01*
X138799095Y-99192001D01*
X138352499Y-99638596D01*
X138290187Y-99672621D01*
X138263404Y-99675500D01*
X138207513Y-99675500D01*
X138201061Y-99676872D01*
X138201056Y-99676872D01*
X138114112Y-99695353D01*
X138020712Y-99715206D01*
X138014682Y-99717891D01*
X138014681Y-99717891D01*
X137852278Y-99790197D01*
X137852276Y-99790198D01*
X137846248Y-99792882D01*
X137840907Y-99796762D01*
X137840906Y-99796763D01*
X137809738Y-99819408D01*
X137691747Y-99905134D01*
X137687326Y-99910044D01*
X137687325Y-99910045D01*
X137590824Y-100017221D01*
X137563960Y-100047056D01*
X137517997Y-100126666D01*
X137494262Y-100167777D01*
X137468473Y-100212444D01*
X137409458Y-100394072D01*
X137389496Y-100584000D01*
X137409458Y-100773928D01*
X137468473Y-100955556D01*
X137563960Y-101120944D01*
X137691747Y-101262866D01*
X137727478Y-101288826D01*
X137831122Y-101364128D01*
X137846248Y-101375118D01*
X137852276Y-101377802D01*
X137852278Y-101377803D01*
X138014681Y-101450109D01*
X138020712Y-101452794D01*
X138114112Y-101472647D01*
X138201056Y-101491128D01*
X138201061Y-101491128D01*
X138207513Y-101492500D01*
X138398487Y-101492500D01*
X138404939Y-101491128D01*
X138404944Y-101491128D01*
X138491888Y-101472647D01*
X138585288Y-101452794D01*
X138591319Y-101450109D01*
X138753722Y-101377803D01*
X138753724Y-101377802D01*
X138759752Y-101375118D01*
X138774879Y-101364128D01*
X138878522Y-101288826D01*
X138914253Y-101262866D01*
X139042040Y-101120944D01*
X139137527Y-100955556D01*
X139196542Y-100773928D01*
X139213907Y-100608708D01*
X139240920Y-100543051D01*
X139250122Y-100532782D01*
X139861758Y-99921147D01*
X139870037Y-99913613D01*
X139876518Y-99909500D01*
X139923144Y-99859848D01*
X139925898Y-99857007D01*
X139945635Y-99837270D01*
X139948115Y-99834073D01*
X139955820Y-99825051D01*
X139986086Y-99792821D01*
X139989905Y-99785875D01*
X139989907Y-99785872D01*
X139995848Y-99775066D01*
X140006699Y-99758547D01*
X140014258Y-99748801D01*
X140019114Y-99742541D01*
X140022259Y-99735272D01*
X140022262Y-99735268D01*
X140036674Y-99701963D01*
X140041891Y-99691313D01*
X140063195Y-99652560D01*
X140068233Y-99632937D01*
X140074637Y-99614234D01*
X140079533Y-99602920D01*
X140079533Y-99602919D01*
X140082681Y-99595645D01*
X140083920Y-99587822D01*
X140083923Y-99587812D01*
X140089599Y-99551976D01*
X140092005Y-99540356D01*
X140101028Y-99505211D01*
X140101028Y-99505210D01*
X140103000Y-99497530D01*
X140103000Y-99477276D01*
X140104551Y-99457565D01*
X140106480Y-99445386D01*
X140107720Y-99437557D01*
X140103559Y-99393538D01*
X140103000Y-99381681D01*
X140103000Y-97827095D01*
X140123002Y-97758974D01*
X140139905Y-97737999D01*
X140291781Y-97586124D01*
X140354093Y-97552099D01*
X140424909Y-97557164D01*
X140462119Y-97579724D01*
X140462247Y-97579866D01*
X140467589Y-97583747D01*
X140467591Y-97583749D01*
X140608177Y-97685891D01*
X140616748Y-97692118D01*
X140622776Y-97694802D01*
X140622778Y-97694803D01*
X140771195Y-97760882D01*
X140791212Y-97769794D01*
X140884612Y-97789647D01*
X140971556Y-97808128D01*
X140971561Y-97808128D01*
X140978013Y-97809500D01*
X141168987Y-97809500D01*
X141175439Y-97808128D01*
X141175444Y-97808128D01*
X141262387Y-97789647D01*
X141355788Y-97769794D01*
X141375805Y-97760882D01*
X141524222Y-97694803D01*
X141524224Y-97694802D01*
X141530252Y-97692118D01*
X141542519Y-97683206D01*
X141597169Y-97643500D01*
X141684753Y-97579866D01*
X141705194Y-97557164D01*
X141808121Y-97442852D01*
X141808122Y-97442851D01*
X141812540Y-97437944D01*
X141872347Y-97334355D01*
X141904723Y-97278279D01*
X141904724Y-97278278D01*
X141908027Y-97272556D01*
X141967042Y-97090928D01*
X141975013Y-97015093D01*
X141986314Y-96907565D01*
X141987004Y-96901000D01*
X141967042Y-96711072D01*
X141908027Y-96529444D01*
X141812540Y-96364056D01*
X141739363Y-96282785D01*
X141708647Y-96218779D01*
X141707000Y-96198476D01*
X141707000Y-84383263D01*
X141707527Y-84372079D01*
X141709201Y-84364591D01*
X141707062Y-84296532D01*
X141707000Y-84292575D01*
X141707000Y-84264644D01*
X141706494Y-84260638D01*
X141705561Y-84248792D01*
X141704422Y-84212537D01*
X141704173Y-84204610D01*
X141698522Y-84185158D01*
X141694514Y-84165806D01*
X141692967Y-84153563D01*
X141691974Y-84145703D01*
X141689056Y-84138332D01*
X141675700Y-84104597D01*
X141671855Y-84093370D01*
X141671221Y-84091187D01*
X141659518Y-84050907D01*
X141655484Y-84044085D01*
X141655481Y-84044079D01*
X141649206Y-84033468D01*
X141640510Y-84015718D01*
X141635972Y-84004256D01*
X141635969Y-84004251D01*
X141633052Y-83996883D01*
X141607073Y-83961125D01*
X141600557Y-83951207D01*
X141582075Y-83919957D01*
X141578042Y-83913137D01*
X141563718Y-83898813D01*
X141550876Y-83883778D01*
X141538972Y-83867393D01*
X141504906Y-83839211D01*
X141496127Y-83831222D01*
X140647122Y-82982217D01*
X140613096Y-82919905D01*
X140610907Y-82906292D01*
X140594232Y-82747635D01*
X140594232Y-82747633D01*
X140593542Y-82741072D01*
X140534527Y-82559444D01*
X140439040Y-82394056D01*
X140418822Y-82371601D01*
X140315675Y-82257045D01*
X140315674Y-82257044D01*
X140311253Y-82252134D01*
X140156752Y-82139882D01*
X140150724Y-82137198D01*
X140150722Y-82137197D01*
X139988319Y-82064891D01*
X139988318Y-82064891D01*
X139982288Y-82062206D01*
X139888887Y-82042353D01*
X139801944Y-82023872D01*
X139801939Y-82023872D01*
X139795487Y-82022500D01*
X139604513Y-82022500D01*
X139598061Y-82023872D01*
X139598056Y-82023872D01*
X139511113Y-82042353D01*
X139417712Y-82062206D01*
X139411682Y-82064891D01*
X139411681Y-82064891D01*
X139249278Y-82137197D01*
X139249276Y-82137198D01*
X139243248Y-82139882D01*
X139088747Y-82252134D01*
X139084326Y-82257044D01*
X139084325Y-82257045D01*
X138981179Y-82371601D01*
X138960960Y-82394056D01*
X138865473Y-82559444D01*
X138806458Y-82741072D01*
X138805768Y-82747633D01*
X138805768Y-82747635D01*
X138794872Y-82851305D01*
X138786496Y-82931000D01*
X138806458Y-83120928D01*
X138865473Y-83302556D01*
X138960960Y-83467944D01*
X138965378Y-83472851D01*
X138965379Y-83472852D01*
X139084325Y-83604955D01*
X139088747Y-83609866D01*
X139243248Y-83722118D01*
X139249276Y-83724802D01*
X139249278Y-83724803D01*
X139390795Y-83787810D01*
X139417712Y-83799794D01*
X139511112Y-83819647D01*
X139598056Y-83838128D01*
X139598061Y-83838128D01*
X139604513Y-83839500D01*
X139660406Y-83839500D01*
X139728527Y-83859502D01*
X139749501Y-83876405D01*
X140403095Y-84529999D01*
X140437121Y-84592311D01*
X140440000Y-84619094D01*
X140440000Y-93736691D01*
X140419998Y-93804812D01*
X140366342Y-93851305D01*
X140296068Y-93861409D01*
X140279160Y-93856913D01*
X140279059Y-93857305D01*
X140259437Y-93852267D01*
X140240734Y-93845863D01*
X140229420Y-93840967D01*
X140229419Y-93840967D01*
X140222145Y-93837819D01*
X140214322Y-93836580D01*
X140214312Y-93836577D01*
X140178476Y-93830901D01*
X140166856Y-93828495D01*
X140131711Y-93819472D01*
X140131710Y-93819472D01*
X140124030Y-93817500D01*
X140103776Y-93817500D01*
X140084065Y-93815949D01*
X140081534Y-93815548D01*
X140064057Y-93812780D01*
X140056165Y-93813526D01*
X140020039Y-93816941D01*
X140008181Y-93817500D01*
X137688572Y-93817500D01*
X137620451Y-93797498D01*
X137573958Y-93743842D01*
X137563262Y-93704670D01*
X137546232Y-93542635D01*
X137546232Y-93542633D01*
X137545542Y-93536072D01*
X137486527Y-93354444D01*
X137391040Y-93189056D01*
X137317863Y-93107785D01*
X137287147Y-93043779D01*
X137285500Y-93023476D01*
X137285500Y-89232767D01*
X137286027Y-89221584D01*
X137287702Y-89214091D01*
X137285562Y-89146000D01*
X137285500Y-89142043D01*
X137285500Y-89114144D01*
X137284996Y-89110153D01*
X137284063Y-89098311D01*
X137283807Y-89090145D01*
X137282674Y-89054111D01*
X137280462Y-89046497D01*
X137280461Y-89046492D01*
X137277023Y-89034659D01*
X137273012Y-89015295D01*
X137271467Y-89003064D01*
X137270474Y-88995203D01*
X137267557Y-88987836D01*
X137267556Y-88987831D01*
X137254198Y-88954092D01*
X137250354Y-88942865D01*
X137240230Y-88908022D01*
X137238018Y-88900407D01*
X137227707Y-88882972D01*
X137219012Y-88865224D01*
X137211552Y-88846383D01*
X137199596Y-88829926D01*
X137185564Y-88810613D01*
X137179048Y-88800693D01*
X137160580Y-88769465D01*
X137160578Y-88769462D01*
X137156542Y-88762638D01*
X137142221Y-88748317D01*
X137129380Y-88733283D01*
X137122131Y-88723306D01*
X137117472Y-88716893D01*
X137083395Y-88688702D01*
X137074616Y-88680712D01*
X136049622Y-87655717D01*
X136015596Y-87593405D01*
X136013407Y-87579792D01*
X135996732Y-87421135D01*
X135996732Y-87421133D01*
X135996042Y-87414572D01*
X135937027Y-87232944D01*
X135841540Y-87067556D01*
X135785152Y-87004930D01*
X135718175Y-86930545D01*
X135718174Y-86930544D01*
X135713753Y-86925634D01*
X135559252Y-86813382D01*
X135553224Y-86810698D01*
X135553222Y-86810697D01*
X135390819Y-86738391D01*
X135390818Y-86738391D01*
X135384788Y-86735706D01*
X135291388Y-86715853D01*
X135204444Y-86697372D01*
X135204439Y-86697372D01*
X135197987Y-86696000D01*
X135007013Y-86696000D01*
X135000561Y-86697372D01*
X135000556Y-86697372D01*
X134913612Y-86715853D01*
X134820212Y-86735706D01*
X134814182Y-86738391D01*
X134814181Y-86738391D01*
X134651778Y-86810697D01*
X134651776Y-86810698D01*
X134645748Y-86813382D01*
X134491247Y-86925634D01*
X134486826Y-86930544D01*
X134486825Y-86930545D01*
X134419849Y-87004930D01*
X134363460Y-87067556D01*
X134267973Y-87232944D01*
X134208958Y-87414572D01*
X134208268Y-87421133D01*
X134208268Y-87421135D01*
X134198626Y-87512872D01*
X134188996Y-87604500D01*
X134189686Y-87611065D01*
X134203357Y-87741134D01*
X134208958Y-87794428D01*
X134267973Y-87976056D01*
X134363460Y-88141444D01*
X134491247Y-88283366D01*
X134576979Y-88345654D01*
X134608812Y-88368782D01*
X134645748Y-88395618D01*
X134651776Y-88398302D01*
X134651778Y-88398303D01*
X134812600Y-88469905D01*
X134820212Y-88473294D01*
X134913613Y-88493147D01*
X135000556Y-88511628D01*
X135000561Y-88511628D01*
X135007013Y-88513000D01*
X135062905Y-88513000D01*
X135131026Y-88533002D01*
X135152001Y-88549905D01*
X135981596Y-89379501D01*
X136015621Y-89441813D01*
X136018500Y-89468596D01*
X136018500Y-92312125D01*
X135998498Y-92380246D01*
X135944842Y-92426739D01*
X135874568Y-92436843D01*
X135809988Y-92407349D01*
X135783381Y-92375125D01*
X135775051Y-92360697D01*
X135740040Y-92300056D01*
X135714462Y-92271648D01*
X135616675Y-92163045D01*
X135616674Y-92163044D01*
X135612253Y-92158134D01*
X135457752Y-92045882D01*
X135451724Y-92043198D01*
X135451722Y-92043197D01*
X135289319Y-91970891D01*
X135289318Y-91970891D01*
X135283288Y-91968206D01*
X135172730Y-91944706D01*
X135102944Y-91929872D01*
X135102939Y-91929872D01*
X135096487Y-91928500D01*
X134905513Y-91928500D01*
X134899061Y-91929872D01*
X134899056Y-91929872D01*
X134829270Y-91944706D01*
X134718712Y-91968206D01*
X134712682Y-91970891D01*
X134712681Y-91970891D01*
X134550278Y-92043197D01*
X134550276Y-92043198D01*
X134544248Y-92045882D01*
X134389747Y-92158134D01*
X134385326Y-92163044D01*
X134385325Y-92163045D01*
X134287539Y-92271648D01*
X134261960Y-92300056D01*
X134183345Y-92436221D01*
X134170771Y-92458000D01*
X134119389Y-92506993D01*
X134061652Y-92521000D01*
X132724700Y-92521000D01*
X132656579Y-92500998D01*
X132637353Y-92484657D01*
X132637080Y-92484960D01*
X132632168Y-92480537D01*
X132627753Y-92475634D01*
X132473252Y-92363382D01*
X132467224Y-92360698D01*
X132467222Y-92360697D01*
X132304819Y-92288391D01*
X132304818Y-92288391D01*
X132298788Y-92285706D01*
X132205388Y-92265853D01*
X132118444Y-92247372D01*
X132118439Y-92247372D01*
X132111987Y-92246000D01*
X131921013Y-92246000D01*
X131914561Y-92247372D01*
X131914556Y-92247372D01*
X131827612Y-92265853D01*
X131734212Y-92285706D01*
X131728182Y-92288391D01*
X131728181Y-92288391D01*
X131565778Y-92360697D01*
X131565776Y-92360698D01*
X131559748Y-92363382D01*
X131405247Y-92475634D01*
X131277460Y-92617556D01*
X131181973Y-92782944D01*
X131122958Y-92964572D01*
X131102996Y-93154500D01*
X131103686Y-93161065D01*
X131106208Y-93185056D01*
X131122958Y-93344428D01*
X131181973Y-93526056D01*
X131185276Y-93531778D01*
X131185277Y-93531779D01*
X131241119Y-93628500D01*
X131257857Y-93697495D01*
X131234637Y-93764587D01*
X131178829Y-93808474D01*
X131132000Y-93817500D01*
X127930763Y-93817500D01*
X127919579Y-93816973D01*
X127912091Y-93815299D01*
X127904168Y-93815548D01*
X127844033Y-93817438D01*
X127840075Y-93817500D01*
X127812144Y-93817500D01*
X127808229Y-93817995D01*
X127808225Y-93817995D01*
X127808167Y-93818003D01*
X127808138Y-93818006D01*
X127796296Y-93818939D01*
X127752110Y-93820327D01*
X127734744Y-93825372D01*
X127732658Y-93825978D01*
X127713306Y-93829986D01*
X127701068Y-93831532D01*
X127701066Y-93831533D01*
X127693203Y-93832526D01*
X127652086Y-93848806D01*
X127640885Y-93852641D01*
X127598406Y-93864982D01*
X127591587Y-93869015D01*
X127591582Y-93869017D01*
X127580971Y-93875293D01*
X127563221Y-93883990D01*
X127544383Y-93891448D01*
X127537967Y-93896109D01*
X127537966Y-93896110D01*
X127508625Y-93917428D01*
X127498701Y-93923947D01*
X127467460Y-93942422D01*
X127467455Y-93942426D01*
X127460637Y-93946458D01*
X127446313Y-93960782D01*
X127431281Y-93973621D01*
X127414893Y-93985528D01*
X127386712Y-94019593D01*
X127378722Y-94028373D01*
X127078747Y-94328348D01*
X127070461Y-94335888D01*
X127063982Y-94340000D01*
X127058557Y-94345777D01*
X127017357Y-94389651D01*
X127014602Y-94392493D01*
X126994865Y-94412230D01*
X126992385Y-94415427D01*
X126984682Y-94424447D01*
X126954414Y-94456679D01*
X126950595Y-94463625D01*
X126950593Y-94463628D01*
X126944652Y-94474434D01*
X126933801Y-94490953D01*
X126921386Y-94506959D01*
X126918241Y-94514228D01*
X126918238Y-94514232D01*
X126903826Y-94547537D01*
X126898609Y-94558187D01*
X126877305Y-94596940D01*
X126875334Y-94604615D01*
X126875334Y-94604616D01*
X126872267Y-94616562D01*
X126865863Y-94635266D01*
X126857819Y-94653855D01*
X126856580Y-94661678D01*
X126856577Y-94661688D01*
X126850901Y-94697524D01*
X126848495Y-94709144D01*
X126837500Y-94751970D01*
X126837500Y-94772224D01*
X126835949Y-94791934D01*
X126832780Y-94811943D01*
X126833526Y-94819835D01*
X126836941Y-94855961D01*
X126837500Y-94867819D01*
X126837500Y-98771500D01*
X126817498Y-98839621D01*
X126763842Y-98886114D01*
X126711500Y-98897500D01*
X124480572Y-98897500D01*
X124412451Y-98877498D01*
X124365958Y-98823842D01*
X124355262Y-98784670D01*
X124338232Y-98622635D01*
X124338232Y-98622633D01*
X124337542Y-98616072D01*
X124278527Y-98434444D01*
X124183040Y-98269056D01*
X124109863Y-98187785D01*
X124079147Y-98123779D01*
X124077500Y-98103476D01*
X124077500Y-90703535D01*
X124094381Y-90640535D01*
X124148223Y-90547279D01*
X124148224Y-90547278D01*
X124151527Y-90541556D01*
X124210542Y-90359928D01*
X124223717Y-90234580D01*
X124229814Y-90176565D01*
X124230504Y-90170000D01*
X124210542Y-89980072D01*
X124151527Y-89798444D01*
X124056040Y-89633056D01*
X123928253Y-89491134D01*
X123773752Y-89378882D01*
X123767724Y-89376198D01*
X123767722Y-89376197D01*
X123605319Y-89303891D01*
X123605318Y-89303891D01*
X123599288Y-89301206D01*
X123496163Y-89279286D01*
X123418944Y-89262872D01*
X123418939Y-89262872D01*
X123412487Y-89261500D01*
X123221513Y-89261500D01*
X123215061Y-89262872D01*
X123215056Y-89262872D01*
X123137837Y-89279286D01*
X123034712Y-89301206D01*
X123028682Y-89303891D01*
X123028681Y-89303891D01*
X122866278Y-89376197D01*
X122866276Y-89376198D01*
X122860248Y-89378882D01*
X122705747Y-89491134D01*
X122577960Y-89633056D01*
X122482473Y-89798444D01*
X122423458Y-89980072D01*
X122403496Y-90170000D01*
X122404186Y-90176565D01*
X122410284Y-90234580D01*
X122423458Y-90359928D01*
X122482473Y-90541556D01*
X122577960Y-90706944D01*
X122705747Y-90848866D01*
X122746427Y-90878422D01*
X122758561Y-90887238D01*
X122801915Y-90943461D01*
X122810500Y-90989174D01*
X122810500Y-97997710D01*
X122790498Y-98065831D01*
X122736842Y-98112324D01*
X122666568Y-98122428D01*
X122601988Y-98092934D01*
X122595405Y-98086805D01*
X122584465Y-98075865D01*
X122581268Y-98073385D01*
X122572246Y-98065680D01*
X122545795Y-98040841D01*
X122540016Y-98035414D01*
X122533070Y-98031595D01*
X122533067Y-98031593D01*
X122522261Y-98025652D01*
X122505742Y-98014801D01*
X122499743Y-98010148D01*
X122489736Y-98002386D01*
X122482467Y-97999241D01*
X122482463Y-97999238D01*
X122449158Y-97984826D01*
X122438508Y-97979609D01*
X122399755Y-97958305D01*
X122380132Y-97953267D01*
X122361429Y-97946863D01*
X122350115Y-97941967D01*
X122350114Y-97941967D01*
X122342840Y-97938819D01*
X122335017Y-97937580D01*
X122335007Y-97937577D01*
X122299171Y-97931901D01*
X122287551Y-97929495D01*
X122252406Y-97920472D01*
X122252405Y-97920472D01*
X122244725Y-97918500D01*
X122224471Y-97918500D01*
X122204760Y-97916949D01*
X122192581Y-97915020D01*
X122184752Y-97913780D01*
X122176860Y-97914526D01*
X122140734Y-97917941D01*
X122128876Y-97918500D01*
X118540700Y-97918500D01*
X118472579Y-97898498D01*
X118453353Y-97882157D01*
X118453080Y-97882460D01*
X118448168Y-97878037D01*
X118443753Y-97873134D01*
X118303407Y-97771166D01*
X118294594Y-97764763D01*
X118294593Y-97764762D01*
X118289252Y-97760882D01*
X118283224Y-97758198D01*
X118283222Y-97758197D01*
X118120819Y-97685891D01*
X118120818Y-97685891D01*
X118114788Y-97683206D01*
X118021388Y-97663353D01*
X117934444Y-97644872D01*
X117934439Y-97644872D01*
X117927987Y-97643500D01*
X117737013Y-97643500D01*
X117730561Y-97644872D01*
X117730556Y-97644872D01*
X117643612Y-97663353D01*
X117550212Y-97683206D01*
X117544182Y-97685891D01*
X117544181Y-97685891D01*
X117381778Y-97758197D01*
X117381776Y-97758198D01*
X117375748Y-97760882D01*
X117370407Y-97764762D01*
X117370406Y-97764763D01*
X117361593Y-97771166D01*
X117221247Y-97873134D01*
X117216826Y-97878044D01*
X117216825Y-97878045D01*
X117107703Y-97999238D01*
X117093460Y-98015056D01*
X116997973Y-98180444D01*
X116938958Y-98362072D01*
X116918996Y-98552000D01*
X116938958Y-98741928D01*
X116997973Y-98923556D01*
X117093460Y-99088944D01*
X117166637Y-99170215D01*
X117197353Y-99234221D01*
X117199000Y-99254524D01*
X117199000Y-101288826D01*
X117178998Y-101356947D01*
X117147061Y-101390762D01*
X117094247Y-101429134D01*
X116966460Y-101571056D01*
X116870973Y-101736444D01*
X116811958Y-101918072D01*
X116791996Y-102108000D01*
X116811958Y-102297928D01*
X116870973Y-102479556D01*
X116966460Y-102644944D01*
X117039637Y-102726215D01*
X117070353Y-102790221D01*
X117072000Y-102810524D01*
X117072000Y-104844826D01*
X117051998Y-104912947D01*
X117020061Y-104946762D01*
X116967247Y-104985134D01*
X116839460Y-105127056D01*
X116743973Y-105292444D01*
X116684958Y-105474072D01*
X116664996Y-105664000D01*
X116684958Y-105853928D01*
X116743973Y-106035556D01*
X116839460Y-106200944D01*
X116912637Y-106282215D01*
X116943353Y-106346221D01*
X116945000Y-106366524D01*
X116945000Y-108771476D01*
X116924998Y-108839597D01*
X116912642Y-108855779D01*
X116839460Y-108937056D01*
X116743973Y-109102444D01*
X116684958Y-109284072D01*
X116664996Y-109474000D01*
X115314500Y-109474000D01*
X115314500Y-93542124D01*
X115334502Y-93474003D01*
X115346864Y-93457814D01*
X115439121Y-93355352D01*
X115439122Y-93355351D01*
X115443540Y-93350444D01*
X115539027Y-93185056D01*
X115598042Y-93003428D01*
X115618004Y-92813500D01*
X115615453Y-92789229D01*
X115598732Y-92630135D01*
X115598732Y-92630133D01*
X115598042Y-92623572D01*
X115539027Y-92441944D01*
X115530249Y-92426739D01*
X115450373Y-92288391D01*
X115443540Y-92276556D01*
X115336913Y-92158134D01*
X115320175Y-92139545D01*
X115320174Y-92139544D01*
X115315753Y-92134634D01*
X115161252Y-92022382D01*
X115155224Y-92019698D01*
X115155222Y-92019697D01*
X114992819Y-91947391D01*
X114992818Y-91947391D01*
X114986788Y-91944706D01*
X114893387Y-91924853D01*
X114806444Y-91906372D01*
X114806439Y-91906372D01*
X114799987Y-91905000D01*
X114609013Y-91905000D01*
X114602561Y-91906372D01*
X114602556Y-91906372D01*
X114515612Y-91924853D01*
X114422212Y-91944706D01*
X114416182Y-91947391D01*
X114416181Y-91947391D01*
X114253778Y-92019697D01*
X114253776Y-92019698D01*
X114247748Y-92022382D01*
X114093247Y-92134634D01*
X114088826Y-92139544D01*
X114088825Y-92139545D01*
X114072088Y-92158134D01*
X113965460Y-92276556D01*
X113958627Y-92288391D01*
X113878752Y-92426739D01*
X113869973Y-92441944D01*
X113810958Y-92623572D01*
X113810268Y-92630133D01*
X113810268Y-92630135D01*
X113793547Y-92789229D01*
X113790996Y-92813500D01*
X113810958Y-93003428D01*
X113869973Y-93185056D01*
X113965460Y-93350444D01*
X113969878Y-93355351D01*
X113969879Y-93355352D01*
X114015136Y-93405615D01*
X114045854Y-93469622D01*
X114047500Y-93489925D01*
X114047500Y-113470476D01*
X114027498Y-113538597D01*
X114015142Y-113554779D01*
X113941960Y-113636056D01*
X113846473Y-113801444D01*
X113787458Y-113983072D01*
X113786768Y-113989633D01*
X113786768Y-113989635D01*
X113775272Y-114099016D01*
X113767496Y-114173000D01*
X95508500Y-114173000D01*
X95508500Y-91993856D01*
X96371601Y-91993856D01*
X96378059Y-92003216D01*
X96394361Y-92017512D01*
X96400901Y-92022530D01*
X96640144Y-92182387D01*
X96647281Y-92186508D01*
X96905349Y-92313772D01*
X96912953Y-92316922D01*
X97185420Y-92409412D01*
X97193383Y-92411546D01*
X97475600Y-92467683D01*
X97483751Y-92468756D01*
X97770881Y-92487575D01*
X97779119Y-92487575D01*
X98066249Y-92468756D01*
X98074400Y-92467683D01*
X98356617Y-92411546D01*
X98364580Y-92409412D01*
X98637047Y-92316922D01*
X98644651Y-92313772D01*
X98902719Y-92186508D01*
X98909856Y-92182387D01*
X99149099Y-92022530D01*
X99155639Y-92017512D01*
X99170074Y-92004853D01*
X99177050Y-91993856D01*
X102821601Y-91993856D01*
X102828059Y-92003216D01*
X102844361Y-92017512D01*
X102850901Y-92022530D01*
X103090144Y-92182387D01*
X103097281Y-92186508D01*
X103355349Y-92313772D01*
X103362953Y-92316922D01*
X103635420Y-92409412D01*
X103643383Y-92411546D01*
X103925600Y-92467683D01*
X103933751Y-92468756D01*
X104220881Y-92487575D01*
X104229119Y-92487575D01*
X104516249Y-92468756D01*
X104524400Y-92467683D01*
X104806617Y-92411546D01*
X104814580Y-92409412D01*
X105087047Y-92316922D01*
X105094651Y-92313772D01*
X105352719Y-92186508D01*
X105359856Y-92182387D01*
X105599099Y-92022530D01*
X105605639Y-92017512D01*
X105620074Y-92004853D01*
X105628472Y-91991614D01*
X105622638Y-91981849D01*
X104237810Y-90597020D01*
X104223869Y-90589408D01*
X104222034Y-90589539D01*
X104215420Y-90593790D01*
X102829116Y-91980095D01*
X102821601Y-91993856D01*
X99177050Y-91993856D01*
X99178472Y-91991614D01*
X99172638Y-91981849D01*
X97787810Y-90597020D01*
X97773869Y-90589408D01*
X97772034Y-90589539D01*
X97765420Y-90593790D01*
X96379116Y-91980095D01*
X96371601Y-91993856D01*
X95508500Y-91993856D01*
X95508500Y-91274639D01*
X95528502Y-91206518D01*
X95582158Y-91160025D01*
X95652432Y-91149921D01*
X95717012Y-91179415D01*
X95747506Y-91218911D01*
X95813492Y-91352718D01*
X95817613Y-91359855D01*
X95977470Y-91599099D01*
X95982488Y-91605639D01*
X95995147Y-91620074D01*
X96008386Y-91628472D01*
X96018151Y-91622638D01*
X97402980Y-90237810D01*
X97409357Y-90226131D01*
X98139408Y-90226131D01*
X98139539Y-90227966D01*
X98143790Y-90234580D01*
X99530095Y-91620884D01*
X99543856Y-91628399D01*
X99553216Y-91621941D01*
X99567512Y-91605639D01*
X99572530Y-91599099D01*
X99732387Y-91359855D01*
X99736508Y-91352718D01*
X99863772Y-91094651D01*
X99866922Y-91087047D01*
X99959412Y-90814580D01*
X99961546Y-90806617D01*
X100017683Y-90524400D01*
X100018756Y-90516249D01*
X100037575Y-90229119D01*
X101962425Y-90229119D01*
X101981244Y-90516249D01*
X101982317Y-90524400D01*
X102038454Y-90806617D01*
X102040588Y-90814580D01*
X102133078Y-91087047D01*
X102136228Y-91094651D01*
X102263492Y-91352718D01*
X102267613Y-91359855D01*
X102427470Y-91599099D01*
X102432488Y-91605639D01*
X102445147Y-91620074D01*
X102458386Y-91628472D01*
X102468151Y-91622638D01*
X103852980Y-90237810D01*
X103859357Y-90226131D01*
X104589408Y-90226131D01*
X104589539Y-90227966D01*
X104593790Y-90234580D01*
X105980095Y-91620884D01*
X105993856Y-91628399D01*
X106003216Y-91621941D01*
X106017512Y-91605639D01*
X106022530Y-91599099D01*
X106182387Y-91359855D01*
X106186508Y-91352718D01*
X106313772Y-91094651D01*
X106316922Y-91087047D01*
X106409412Y-90814580D01*
X106411546Y-90806617D01*
X106467683Y-90524400D01*
X106468756Y-90516249D01*
X106487575Y-90229119D01*
X106487575Y-90220881D01*
X106468756Y-89933751D01*
X106467683Y-89925600D01*
X106411546Y-89643383D01*
X106409412Y-89635420D01*
X106316922Y-89362953D01*
X106313772Y-89355349D01*
X106186508Y-89097282D01*
X106182387Y-89090145D01*
X106022530Y-88850901D01*
X106017512Y-88844361D01*
X106004853Y-88829926D01*
X105991614Y-88821528D01*
X105981849Y-88827362D01*
X104597020Y-90212190D01*
X104589408Y-90226131D01*
X103859357Y-90226131D01*
X103860592Y-90223869D01*
X103860461Y-90222034D01*
X103856210Y-90215420D01*
X102469905Y-88829116D01*
X102456144Y-88821601D01*
X102446784Y-88828059D01*
X102432488Y-88844361D01*
X102427470Y-88850901D01*
X102267613Y-89090145D01*
X102263492Y-89097282D01*
X102136228Y-89355349D01*
X102133078Y-89362953D01*
X102040588Y-89635420D01*
X102038454Y-89643383D01*
X101982317Y-89925600D01*
X101981244Y-89933751D01*
X101962425Y-90220881D01*
X101962425Y-90229119D01*
X100037575Y-90229119D01*
X100037575Y-90220881D01*
X100018756Y-89933751D01*
X100017683Y-89925600D01*
X99961546Y-89643383D01*
X99959412Y-89635420D01*
X99866922Y-89362953D01*
X99863772Y-89355349D01*
X99736508Y-89097282D01*
X99732387Y-89090145D01*
X99572530Y-88850901D01*
X99567512Y-88844361D01*
X99554853Y-88829926D01*
X99541614Y-88821528D01*
X99531849Y-88827362D01*
X98147020Y-90212190D01*
X98139408Y-90226131D01*
X97409357Y-90226131D01*
X97410592Y-90223869D01*
X97410461Y-90222034D01*
X97406210Y-90215420D01*
X96019905Y-88829116D01*
X96006144Y-88821601D01*
X95996784Y-88828059D01*
X95982488Y-88844361D01*
X95977470Y-88850901D01*
X95817613Y-89090145D01*
X95813492Y-89097282D01*
X95747506Y-89231089D01*
X95699438Y-89283338D01*
X95630752Y-89301305D01*
X95563256Y-89279286D01*
X95518380Y-89224271D01*
X95508500Y-89175361D01*
X95508500Y-88458386D01*
X96371528Y-88458386D01*
X96377362Y-88468151D01*
X97762190Y-89852980D01*
X97776131Y-89860592D01*
X97777966Y-89860461D01*
X97784580Y-89856210D01*
X99170884Y-88469905D01*
X99178399Y-88456144D01*
X99171941Y-88446784D01*
X99155639Y-88432488D01*
X99149099Y-88427470D01*
X98909856Y-88267613D01*
X98902719Y-88263492D01*
X98644651Y-88136228D01*
X98637047Y-88133078D01*
X98364580Y-88040588D01*
X98356617Y-88038454D01*
X98074400Y-87982317D01*
X98066249Y-87981244D01*
X97779119Y-87962425D01*
X97770881Y-87962425D01*
X97483751Y-87981244D01*
X97475600Y-87982317D01*
X97193383Y-88038454D01*
X97185420Y-88040588D01*
X96912953Y-88133078D01*
X96905349Y-88136228D01*
X96647282Y-88263492D01*
X96640145Y-88267613D01*
X96400901Y-88427470D01*
X96394361Y-88432488D01*
X96379926Y-88445147D01*
X96371528Y-88458386D01*
X95508500Y-88458386D01*
X95508500Y-87000000D01*
X99486835Y-87000000D01*
X99505465Y-87236711D01*
X99560895Y-87467594D01*
X99562788Y-87472165D01*
X99562789Y-87472167D01*
X99638818Y-87655717D01*
X99651760Y-87686963D01*
X99654346Y-87691183D01*
X99773241Y-87885202D01*
X99773245Y-87885208D01*
X99775824Y-87889416D01*
X99930031Y-88069969D01*
X100110584Y-88224176D01*
X100114792Y-88226755D01*
X100114798Y-88226759D01*
X100213509Y-88287249D01*
X100313037Y-88348240D01*
X100317607Y-88350133D01*
X100317611Y-88350135D01*
X100504316Y-88427470D01*
X100532406Y-88439105D01*
X100603379Y-88456144D01*
X100758476Y-88493380D01*
X100758482Y-88493381D01*
X100763289Y-88494535D01*
X101000000Y-88513165D01*
X101236711Y-88494535D01*
X101241518Y-88493381D01*
X101241524Y-88493380D01*
X101387283Y-88458386D01*
X102821528Y-88458386D01*
X102827362Y-88468151D01*
X104212190Y-89852980D01*
X104226131Y-89860592D01*
X104227966Y-89860461D01*
X104234580Y-89856210D01*
X105620884Y-88469905D01*
X105628399Y-88456144D01*
X105621941Y-88446784D01*
X105605639Y-88432488D01*
X105599099Y-88427470D01*
X105587919Y-88420000D01*
X126158496Y-88420000D01*
X126159186Y-88426565D01*
X126168271Y-88513000D01*
X126178458Y-88609928D01*
X126237473Y-88791556D01*
X126240776Y-88797278D01*
X126240777Y-88797279D01*
X126258146Y-88827362D01*
X126332960Y-88956944D01*
X126337378Y-88961851D01*
X126337379Y-88961852D01*
X126456325Y-89093955D01*
X126460747Y-89098866D01*
X126615248Y-89211118D01*
X126621276Y-89213802D01*
X126621278Y-89213803D01*
X126783681Y-89286109D01*
X126789712Y-89288794D01*
X126883112Y-89308647D01*
X126970056Y-89327128D01*
X126970061Y-89327128D01*
X126976513Y-89328500D01*
X127167487Y-89328500D01*
X127173939Y-89327128D01*
X127173944Y-89327128D01*
X127260887Y-89308647D01*
X127354288Y-89288794D01*
X127360319Y-89286109D01*
X127522722Y-89213803D01*
X127522724Y-89213802D01*
X127528752Y-89211118D01*
X127683253Y-89098866D01*
X127687675Y-89093955D01*
X127806621Y-88961852D01*
X127806622Y-88961851D01*
X127811040Y-88956944D01*
X127885854Y-88827362D01*
X127903223Y-88797279D01*
X127903224Y-88797278D01*
X127906527Y-88791556D01*
X127965542Y-88609928D01*
X127982907Y-88444706D01*
X128009920Y-88379050D01*
X128019122Y-88368782D01*
X132511499Y-83876405D01*
X132573811Y-83842379D01*
X132600594Y-83839500D01*
X132656487Y-83839500D01*
X132662939Y-83838128D01*
X132662944Y-83838128D01*
X132749888Y-83819647D01*
X132843288Y-83799794D01*
X132870205Y-83787810D01*
X133011722Y-83724803D01*
X133011724Y-83724802D01*
X133017752Y-83722118D01*
X133172253Y-83609866D01*
X133176675Y-83604955D01*
X133295621Y-83472852D01*
X133295622Y-83472851D01*
X133300040Y-83467944D01*
X133395527Y-83302556D01*
X133454542Y-83120928D01*
X133474504Y-82931000D01*
X133466128Y-82851305D01*
X133455232Y-82747635D01*
X133455232Y-82747633D01*
X133454542Y-82741072D01*
X133395527Y-82559444D01*
X133300040Y-82394056D01*
X133279822Y-82371601D01*
X133176675Y-82257045D01*
X133176674Y-82257044D01*
X133172253Y-82252134D01*
X133017752Y-82139882D01*
X133011724Y-82137198D01*
X133011722Y-82137197D01*
X132849319Y-82064891D01*
X132849318Y-82064891D01*
X132843288Y-82062206D01*
X132749887Y-82042353D01*
X132662944Y-82023872D01*
X132662939Y-82023872D01*
X132656487Y-82022500D01*
X132465513Y-82022500D01*
X132459061Y-82023872D01*
X132459056Y-82023872D01*
X132372113Y-82042353D01*
X132278712Y-82062206D01*
X132272682Y-82064891D01*
X132272681Y-82064891D01*
X132110278Y-82137197D01*
X132110276Y-82137198D01*
X132104248Y-82139882D01*
X131949747Y-82252134D01*
X131945326Y-82257044D01*
X131945325Y-82257045D01*
X131842179Y-82371601D01*
X131821960Y-82394056D01*
X131726473Y-82559444D01*
X131667458Y-82741072D01*
X131666768Y-82747633D01*
X131666768Y-82747635D01*
X131650093Y-82906292D01*
X131623080Y-82971949D01*
X131613878Y-82982217D01*
X127121500Y-87474595D01*
X127059188Y-87508621D01*
X127032405Y-87511500D01*
X126976513Y-87511500D01*
X126970061Y-87512872D01*
X126970056Y-87512872D01*
X126883112Y-87531353D01*
X126789712Y-87551206D01*
X126783682Y-87553891D01*
X126783681Y-87553891D01*
X126621278Y-87626197D01*
X126621276Y-87626198D01*
X126615248Y-87628882D01*
X126460747Y-87741134D01*
X126332960Y-87883056D01*
X126329659Y-87888774D01*
X126242009Y-88040588D01*
X126237473Y-88048444D01*
X126178458Y-88230072D01*
X126177768Y-88236633D01*
X126177768Y-88236635D01*
X126161059Y-88395618D01*
X126158496Y-88420000D01*
X105587919Y-88420000D01*
X105359856Y-88267613D01*
X105352719Y-88263492D01*
X105094651Y-88136228D01*
X105087047Y-88133078D01*
X104814580Y-88040588D01*
X104806617Y-88038454D01*
X104524400Y-87982317D01*
X104516249Y-87981244D01*
X104229119Y-87962425D01*
X104220881Y-87962425D01*
X103933751Y-87981244D01*
X103925600Y-87982317D01*
X103643383Y-88038454D01*
X103635420Y-88040588D01*
X103362953Y-88133078D01*
X103355349Y-88136228D01*
X103097282Y-88263492D01*
X103090145Y-88267613D01*
X102850901Y-88427470D01*
X102844361Y-88432488D01*
X102829926Y-88445147D01*
X102821528Y-88458386D01*
X101387283Y-88458386D01*
X101396621Y-88456144D01*
X101467594Y-88439105D01*
X101495684Y-88427470D01*
X101682389Y-88350135D01*
X101682393Y-88350133D01*
X101686963Y-88348240D01*
X101786491Y-88287249D01*
X101885202Y-88226759D01*
X101885208Y-88226755D01*
X101889416Y-88224176D01*
X102069969Y-88069969D01*
X102224176Y-87889416D01*
X102226755Y-87885208D01*
X102226759Y-87885202D01*
X102345654Y-87691183D01*
X102348240Y-87686963D01*
X102361183Y-87655717D01*
X102437211Y-87472167D01*
X102437212Y-87472165D01*
X102439105Y-87467594D01*
X102494535Y-87236711D01*
X102513165Y-87000000D01*
X102494535Y-86763289D01*
X102478381Y-86696000D01*
X102440260Y-86537218D01*
X102439105Y-86532406D01*
X102348240Y-86313037D01*
X102345654Y-86308817D01*
X102226759Y-86114798D01*
X102226755Y-86114792D01*
X102224176Y-86110584D01*
X102069969Y-85930031D01*
X101889416Y-85775824D01*
X101885208Y-85773245D01*
X101885202Y-85773241D01*
X101691183Y-85654346D01*
X101686963Y-85651760D01*
X101682393Y-85649867D01*
X101682389Y-85649865D01*
X101472167Y-85562789D01*
X101472165Y-85562788D01*
X101467594Y-85560895D01*
X101396622Y-85543856D01*
X102821601Y-85543856D01*
X102828059Y-85553216D01*
X102844361Y-85567512D01*
X102850901Y-85572530D01*
X103090144Y-85732387D01*
X103097281Y-85736508D01*
X103355349Y-85863772D01*
X103362953Y-85866922D01*
X103635420Y-85959412D01*
X103643383Y-85961546D01*
X103925600Y-86017683D01*
X103933751Y-86018756D01*
X104220881Y-86037575D01*
X104229119Y-86037575D01*
X104516249Y-86018756D01*
X104524400Y-86017683D01*
X104806617Y-85961546D01*
X104814580Y-85959412D01*
X105087047Y-85866922D01*
X105094651Y-85863772D01*
X105352719Y-85736508D01*
X105359856Y-85732387D01*
X105599099Y-85572530D01*
X105605639Y-85567512D01*
X105620074Y-85554853D01*
X105628472Y-85541614D01*
X105622638Y-85531849D01*
X104237810Y-84147020D01*
X104223869Y-84139408D01*
X104222034Y-84139539D01*
X104215420Y-84143790D01*
X102829116Y-85530095D01*
X102821601Y-85543856D01*
X101396622Y-85543856D01*
X101387283Y-85541614D01*
X101241524Y-85506620D01*
X101241518Y-85506619D01*
X101236711Y-85505465D01*
X101000000Y-85486835D01*
X100763289Y-85505465D01*
X100758482Y-85506619D01*
X100758476Y-85506620D01*
X100612717Y-85541614D01*
X100532406Y-85560895D01*
X100527835Y-85562788D01*
X100527833Y-85562789D01*
X100317611Y-85649865D01*
X100317607Y-85649867D01*
X100313037Y-85651760D01*
X100308817Y-85654346D01*
X100114798Y-85773241D01*
X100114792Y-85773245D01*
X100110584Y-85775824D01*
X99930031Y-85930031D01*
X99775824Y-86110584D01*
X99773245Y-86114792D01*
X99773241Y-86114798D01*
X99654346Y-86308817D01*
X99651760Y-86313037D01*
X99560895Y-86532406D01*
X99559740Y-86537218D01*
X99521620Y-86696000D01*
X99505465Y-86763289D01*
X99486835Y-87000000D01*
X95508500Y-87000000D01*
X95508500Y-85543856D01*
X96371601Y-85543856D01*
X96378059Y-85553216D01*
X96394361Y-85567512D01*
X96400901Y-85572530D01*
X96640144Y-85732387D01*
X96647281Y-85736508D01*
X96905349Y-85863772D01*
X96912953Y-85866922D01*
X97185420Y-85959412D01*
X97193383Y-85961546D01*
X97475600Y-86017683D01*
X97483751Y-86018756D01*
X97770881Y-86037575D01*
X97779119Y-86037575D01*
X98066249Y-86018756D01*
X98074400Y-86017683D01*
X98356617Y-85961546D01*
X98364580Y-85959412D01*
X98637047Y-85866922D01*
X98644651Y-85863772D01*
X98902719Y-85736508D01*
X98909856Y-85732387D01*
X99149099Y-85572530D01*
X99155639Y-85567512D01*
X99170074Y-85554853D01*
X99178472Y-85541614D01*
X99172638Y-85531849D01*
X97787810Y-84147020D01*
X97773869Y-84139408D01*
X97772034Y-84139539D01*
X97765420Y-84143790D01*
X96379116Y-85530095D01*
X96371601Y-85543856D01*
X95508500Y-85543856D01*
X95508500Y-84824639D01*
X95528502Y-84756518D01*
X95582158Y-84710025D01*
X95652432Y-84699921D01*
X95717012Y-84729415D01*
X95747506Y-84768911D01*
X95813492Y-84902718D01*
X95817613Y-84909855D01*
X95977470Y-85149099D01*
X95982488Y-85155639D01*
X95995147Y-85170074D01*
X96008386Y-85178472D01*
X96018151Y-85172638D01*
X97402980Y-83787810D01*
X97409357Y-83776131D01*
X98139408Y-83776131D01*
X98139539Y-83777966D01*
X98143790Y-83784580D01*
X99530095Y-85170884D01*
X99543856Y-85178399D01*
X99553216Y-85171941D01*
X99567512Y-85155639D01*
X99572530Y-85149099D01*
X99732387Y-84909855D01*
X99736508Y-84902718D01*
X99863772Y-84644651D01*
X99866922Y-84637047D01*
X99959412Y-84364580D01*
X99961546Y-84356617D01*
X100017683Y-84074400D01*
X100018756Y-84066249D01*
X100037575Y-83779119D01*
X101962425Y-83779119D01*
X101981244Y-84066249D01*
X101982317Y-84074400D01*
X102038454Y-84356617D01*
X102040588Y-84364580D01*
X102133078Y-84637047D01*
X102136228Y-84644651D01*
X102263492Y-84902718D01*
X102267613Y-84909855D01*
X102427470Y-85149099D01*
X102432488Y-85155639D01*
X102445147Y-85170074D01*
X102458386Y-85178472D01*
X102468151Y-85172638D01*
X103852980Y-83787810D01*
X103859357Y-83776131D01*
X104589408Y-83776131D01*
X104589539Y-83777966D01*
X104593790Y-83784580D01*
X105980095Y-85170884D01*
X105993856Y-85178399D01*
X106003216Y-85171941D01*
X106017512Y-85155639D01*
X106022530Y-85149099D01*
X106182387Y-84909855D01*
X106186508Y-84902718D01*
X106313772Y-84644651D01*
X106316922Y-84637047D01*
X106409412Y-84364580D01*
X106411546Y-84356617D01*
X106467683Y-84074400D01*
X106468756Y-84066249D01*
X106487575Y-83779119D01*
X106487575Y-83770881D01*
X106468756Y-83483751D01*
X106467683Y-83475600D01*
X106411546Y-83193383D01*
X106409412Y-83185420D01*
X106316922Y-82912953D01*
X106313772Y-82905349D01*
X106186508Y-82647282D01*
X106182387Y-82640145D01*
X106022530Y-82400901D01*
X106017512Y-82394361D01*
X106004853Y-82379926D01*
X105991614Y-82371528D01*
X105981849Y-82377362D01*
X104597020Y-83762190D01*
X104589408Y-83776131D01*
X103859357Y-83776131D01*
X103860592Y-83773869D01*
X103860461Y-83772034D01*
X103856210Y-83765420D01*
X102469905Y-82379116D01*
X102456144Y-82371601D01*
X102446784Y-82378059D01*
X102432488Y-82394361D01*
X102427470Y-82400901D01*
X102267613Y-82640145D01*
X102263492Y-82647282D01*
X102136228Y-82905349D01*
X102133078Y-82912953D01*
X102040588Y-83185420D01*
X102038454Y-83193383D01*
X101982317Y-83475600D01*
X101981244Y-83483751D01*
X101962425Y-83770881D01*
X101962425Y-83779119D01*
X100037575Y-83779119D01*
X100037575Y-83770881D01*
X100018756Y-83483751D01*
X100017683Y-83475600D01*
X99961546Y-83193383D01*
X99959412Y-83185420D01*
X99866922Y-82912953D01*
X99863772Y-82905349D01*
X99736508Y-82647282D01*
X99732387Y-82640145D01*
X99572530Y-82400901D01*
X99567512Y-82394361D01*
X99554853Y-82379926D01*
X99541614Y-82371528D01*
X99531849Y-82377362D01*
X98147020Y-83762190D01*
X98139408Y-83776131D01*
X97409357Y-83776131D01*
X97410592Y-83773869D01*
X97410461Y-83772034D01*
X97406210Y-83765420D01*
X96019905Y-82379116D01*
X96006144Y-82371601D01*
X95996784Y-82378059D01*
X95982488Y-82394361D01*
X95977470Y-82400901D01*
X95817613Y-82640145D01*
X95813492Y-82647282D01*
X95747506Y-82781089D01*
X95699438Y-82833338D01*
X95630752Y-82851305D01*
X95563256Y-82829286D01*
X95518380Y-82774271D01*
X95508500Y-82725361D01*
X95508500Y-82008386D01*
X96371528Y-82008386D01*
X96377362Y-82018151D01*
X97762190Y-83402980D01*
X97776131Y-83410592D01*
X97777966Y-83410461D01*
X97784580Y-83406210D01*
X99170884Y-82019905D01*
X99177175Y-82008386D01*
X102821528Y-82008386D01*
X102827362Y-82018151D01*
X104212190Y-83402980D01*
X104226131Y-83410592D01*
X104227966Y-83410461D01*
X104234580Y-83406210D01*
X105620884Y-82019905D01*
X105628399Y-82006144D01*
X105621941Y-81996784D01*
X105605639Y-81982488D01*
X105599099Y-81977470D01*
X105359856Y-81817613D01*
X105352719Y-81813492D01*
X105094651Y-81686228D01*
X105087047Y-81683078D01*
X104814580Y-81590588D01*
X104806617Y-81588454D01*
X104524400Y-81532317D01*
X104516249Y-81531244D01*
X104229119Y-81512425D01*
X104220881Y-81512425D01*
X103933751Y-81531244D01*
X103925600Y-81532317D01*
X103643383Y-81588454D01*
X103635420Y-81590588D01*
X103362953Y-81683078D01*
X103355349Y-81686228D01*
X103097282Y-81813492D01*
X103090145Y-81817613D01*
X102850901Y-81977470D01*
X102844361Y-81982488D01*
X102829926Y-81995147D01*
X102821528Y-82008386D01*
X99177175Y-82008386D01*
X99178399Y-82006144D01*
X99171941Y-81996784D01*
X99155639Y-81982488D01*
X99149099Y-81977470D01*
X98909856Y-81817613D01*
X98902719Y-81813492D01*
X98644651Y-81686228D01*
X98637047Y-81683078D01*
X98364580Y-81590588D01*
X98356617Y-81588454D01*
X98074400Y-81532317D01*
X98066249Y-81531244D01*
X97779119Y-81512425D01*
X97770881Y-81512425D01*
X97483751Y-81531244D01*
X97475600Y-81532317D01*
X97193383Y-81588454D01*
X97185420Y-81590588D01*
X96912953Y-81683078D01*
X96905349Y-81686228D01*
X96647282Y-81813492D01*
X96640145Y-81817613D01*
X96400901Y-81977470D01*
X96394361Y-81982488D01*
X96379926Y-81995147D01*
X96371528Y-82008386D01*
X95508500Y-82008386D01*
X95508500Y-79798134D01*
X103966500Y-79798134D01*
X103973255Y-79860316D01*
X104024385Y-79996705D01*
X104111739Y-80113261D01*
X104228295Y-80200615D01*
X104364684Y-80251745D01*
X104426866Y-80258500D01*
X105573134Y-80258500D01*
X105635316Y-80251745D01*
X105676623Y-80236260D01*
X105763296Y-80203768D01*
X105763299Y-80203766D01*
X105771705Y-80200615D01*
X105778894Y-80195227D01*
X105779137Y-80195094D01*
X105848494Y-80179924D01*
X105876907Y-80185248D01*
X106061180Y-80242290D01*
X106067305Y-80242934D01*
X106067306Y-80242934D01*
X106256622Y-80262832D01*
X106256623Y-80262832D01*
X106262750Y-80263476D01*
X106346014Y-80255898D01*
X106458457Y-80245665D01*
X106458460Y-80245664D01*
X106464596Y-80245106D01*
X106470502Y-80243368D01*
X106470506Y-80243367D01*
X106653120Y-80189620D01*
X106653119Y-80189620D01*
X106659029Y-80187881D01*
X106664486Y-80185028D01*
X106664489Y-80185027D01*
X106833181Y-80096838D01*
X106833185Y-80096835D01*
X106838645Y-80093981D01*
X106838897Y-80093779D01*
X106904912Y-80073799D01*
X106965885Y-80088959D01*
X107132342Y-80178962D01*
X107143647Y-80183714D01*
X107268692Y-80222422D01*
X107282795Y-80222628D01*
X107286000Y-80215873D01*
X107286000Y-80208986D01*
X107794000Y-80208986D01*
X107797973Y-80222517D01*
X107805768Y-80223637D01*
X107922932Y-80189154D01*
X107934300Y-80184561D01*
X108102911Y-80096414D01*
X108113173Y-80089698D01*
X108261443Y-79970485D01*
X108270213Y-79961897D01*
X108392499Y-79816162D01*
X108399437Y-79806031D01*
X108403778Y-79798134D01*
X109966500Y-79798134D01*
X109973255Y-79860316D01*
X110024385Y-79996705D01*
X110111739Y-80113261D01*
X110228295Y-80200615D01*
X110364684Y-80251745D01*
X110426866Y-80258500D01*
X111573134Y-80258500D01*
X111635316Y-80251745D01*
X111710294Y-80223637D01*
X111763301Y-80203766D01*
X111763304Y-80203764D01*
X111771705Y-80200615D01*
X111778888Y-80195232D01*
X111779753Y-80194758D01*
X111849110Y-80179589D01*
X111877522Y-80184913D01*
X111998693Y-80222422D01*
X112012795Y-80222628D01*
X112016000Y-80215873D01*
X112016000Y-79911820D01*
X112022584Y-79875505D01*
X112022144Y-79875400D01*
X112023971Y-79867715D01*
X112026745Y-79860316D01*
X112033500Y-79798134D01*
X112033500Y-79276004D01*
X112506500Y-79276004D01*
X112521277Y-79426713D01*
X112521968Y-79429002D01*
X112524000Y-79449724D01*
X112524000Y-80208986D01*
X112527973Y-80222517D01*
X112535768Y-80223637D01*
X112652932Y-80189154D01*
X112664300Y-80184561D01*
X112832907Y-80096416D01*
X112835983Y-80094403D01*
X112837822Y-80093846D01*
X112838370Y-80093560D01*
X112838424Y-80093664D01*
X112903936Y-80073839D01*
X112964906Y-80088999D01*
X113137565Y-80182356D01*
X113234373Y-80212323D01*
X113325293Y-80240468D01*
X113325296Y-80240469D01*
X113331180Y-80242290D01*
X113337305Y-80242934D01*
X113337306Y-80242934D01*
X113526622Y-80262832D01*
X113526623Y-80262832D01*
X113532750Y-80263476D01*
X113616014Y-80255898D01*
X113728457Y-80245665D01*
X113728460Y-80245664D01*
X113734596Y-80245106D01*
X113740502Y-80243368D01*
X113740506Y-80243367D01*
X113923120Y-80189620D01*
X113923119Y-80189620D01*
X113929029Y-80187881D01*
X113934486Y-80185028D01*
X113934489Y-80185027D01*
X114071765Y-80113261D01*
X114108645Y-80093981D01*
X114266601Y-79966981D01*
X114396881Y-79811719D01*
X114399845Y-79806327D01*
X114399848Y-79806323D01*
X114491556Y-79639506D01*
X114494523Y-79634109D01*
X114555807Y-79440916D01*
X114556506Y-79434691D01*
X114573107Y-79286683D01*
X114573500Y-79283183D01*
X114573500Y-78723996D01*
X114558723Y-78573287D01*
X114500142Y-78379258D01*
X114404990Y-78200302D01*
X114276890Y-78043237D01*
X114238772Y-78011703D01*
X114125472Y-77917973D01*
X114125469Y-77917971D01*
X114120722Y-77914044D01*
X113942435Y-77817644D01*
X113809078Y-77776363D01*
X113754707Y-77759532D01*
X113754704Y-77759531D01*
X113748820Y-77757710D01*
X113742695Y-77757066D01*
X113742694Y-77757066D01*
X113553378Y-77737168D01*
X113553377Y-77737168D01*
X113547250Y-77736524D01*
X113463986Y-77744102D01*
X113351543Y-77754335D01*
X113351540Y-77754336D01*
X113345404Y-77754894D01*
X113339498Y-77756632D01*
X113339494Y-77756633D01*
X113246079Y-77784127D01*
X113150971Y-77812119D01*
X113145514Y-77814972D01*
X113145511Y-77814973D01*
X112976819Y-77903162D01*
X112976815Y-77903165D01*
X112971355Y-77906019D01*
X112971103Y-77906221D01*
X112905088Y-77926201D01*
X112844115Y-77911041D01*
X112677658Y-77821038D01*
X112666353Y-77816286D01*
X112541308Y-77777578D01*
X112527205Y-77777372D01*
X112524000Y-77784127D01*
X112524000Y-78553758D01*
X112523215Y-78567803D01*
X112506500Y-78716817D01*
X112506500Y-79276004D01*
X112033500Y-79276004D01*
X112033500Y-78201866D01*
X112026745Y-78139684D01*
X112023971Y-78132284D01*
X112022144Y-78124600D01*
X112022584Y-78124495D01*
X112016000Y-78088180D01*
X112016000Y-77791014D01*
X112012027Y-77777483D01*
X112004232Y-77776363D01*
X111887067Y-77810846D01*
X111886560Y-77811051D01*
X111886276Y-77811079D01*
X111881159Y-77812585D01*
X111880873Y-77811612D01*
X111815906Y-77818025D01*
X111778869Y-77804754D01*
X111771705Y-77799385D01*
X111635316Y-77748255D01*
X111573134Y-77741500D01*
X110426866Y-77741500D01*
X110364684Y-77748255D01*
X110228295Y-77799385D01*
X110111739Y-77886739D01*
X110024385Y-78003295D01*
X109973255Y-78139684D01*
X109966500Y-78201866D01*
X109966500Y-79798134D01*
X108403778Y-79798134D01*
X108491094Y-79639308D01*
X108495924Y-79628038D01*
X108553452Y-79446685D01*
X108556002Y-79434691D01*
X108572607Y-79286650D01*
X108573000Y-79279626D01*
X108573000Y-79272115D01*
X108568525Y-79256876D01*
X108567135Y-79255671D01*
X108559452Y-79254000D01*
X107812115Y-79254000D01*
X107796876Y-79258475D01*
X107795671Y-79259865D01*
X107794000Y-79267548D01*
X107794000Y-80208986D01*
X107286000Y-80208986D01*
X107286000Y-79446242D01*
X107286785Y-79432197D01*
X107303107Y-79286683D01*
X107303500Y-79283183D01*
X107303500Y-78727885D01*
X107794000Y-78727885D01*
X107798475Y-78743124D01*
X107799865Y-78744329D01*
X107807548Y-78746000D01*
X108554885Y-78746000D01*
X108570124Y-78741525D01*
X108571329Y-78740135D01*
X108573000Y-78732452D01*
X108573000Y-78727110D01*
X108572700Y-78720965D01*
X108558830Y-78579519D01*
X108556447Y-78567481D01*
X108501458Y-78385349D01*
X108496783Y-78374007D01*
X108407465Y-78206023D01*
X108400678Y-78195807D01*
X108280428Y-78048366D01*
X108271784Y-78039662D01*
X108125191Y-77918390D01*
X108115020Y-77911530D01*
X107947658Y-77821038D01*
X107936353Y-77816286D01*
X107811308Y-77777578D01*
X107797205Y-77777372D01*
X107794000Y-77784127D01*
X107794000Y-78727885D01*
X107303500Y-78727885D01*
X107303500Y-78723996D01*
X107288723Y-78573287D01*
X107288032Y-78570998D01*
X107286000Y-78550276D01*
X107286000Y-77791014D01*
X107282027Y-77777483D01*
X107274232Y-77776363D01*
X107157068Y-77810846D01*
X107145700Y-77815439D01*
X106977093Y-77903584D01*
X106974017Y-77905597D01*
X106972178Y-77906154D01*
X106971630Y-77906440D01*
X106971576Y-77906336D01*
X106906064Y-77926161D01*
X106845094Y-77911001D01*
X106813502Y-77893919D01*
X106672435Y-77817644D01*
X106539078Y-77776363D01*
X106484707Y-77759532D01*
X106484704Y-77759531D01*
X106478820Y-77757710D01*
X106472695Y-77757066D01*
X106472694Y-77757066D01*
X106283378Y-77737168D01*
X106283377Y-77737168D01*
X106277250Y-77736524D01*
X106193986Y-77744102D01*
X106081543Y-77754335D01*
X106081540Y-77754336D01*
X106075404Y-77754894D01*
X106069498Y-77756632D01*
X106069494Y-77756633D01*
X105886879Y-77810380D01*
X105886877Y-77810381D01*
X105885493Y-77810788D01*
X105882694Y-77811612D01*
X105880971Y-77812119D01*
X105880718Y-77811260D01*
X105815338Y-77817714D01*
X105778594Y-77804548D01*
X105771705Y-77799385D01*
X105763304Y-77796236D01*
X105763301Y-77796234D01*
X105651534Y-77754335D01*
X105635316Y-77748255D01*
X105573134Y-77741500D01*
X104426866Y-77741500D01*
X104364684Y-77748255D01*
X104228295Y-77799385D01*
X104111739Y-77886739D01*
X104024385Y-78003295D01*
X103973255Y-78139684D01*
X103966500Y-78201866D01*
X103966500Y-79798134D01*
X95508500Y-79798134D01*
X95508500Y-75634500D01*
X95528502Y-75566379D01*
X95582158Y-75519886D01*
X95634500Y-75508500D01*
X153365500Y-75508500D01*
X153433621Y-75528502D01*
G37*
%TD.AperFunction*%
%TD*%
M02*
